<svg xmlns="http://www.w3.org/2000/svg" viewBox="0 0 100 91.376351" height="97.468" width="106.667"><path d="M62.336 89.866c-9.404-4.66-20.05-17.266-29.106-34.469 0 0-2.024-6.626-3.23-6.553-1.206.074-2.94 4.041-2.94 4.041-3.95 8.816-6.174 17.899-5.838 23.847.375 6.63 2.72 7.74 7.324 7.74 3.007 0 4.153-.059 10.1-3.547 2.18-1.28 2.616-1.326 3.237-.34 1.042 1.655-1.073 3.693-6.529 6.293-8.288 3.948-14.426 2.393-16.983-4.301-2.562-6.71-1.007-17.345 5.427-31.1 0 0 2.668-4.998 2.93-7.746.202-2.12-1.09-6.297-1.09-6.297-1.017-3.39-1.246-5.118-2.538-5.766-1.22-.613-2.841.155-5.144.838-8.97 2.662-13.84 6.05-13.84 9.996 0 2.225 2.458 6.839 6.361 9.303 2.845 1.796 3.663 4.005 1.722 4.651-1.342.447-7.736-4.047-10.022-7.043-2.566-3.365-2.904-8.19-.799-11.403C3.477 34.807 9.25 31.4 16.31 29.2c0 0 4.192-1.117 5.668-2.004.908-.545.204-3.17.204-3.17-.82-4.71-.57-14.406.44-17.046 2.04-5.33 6.944-8.008 12.116-6.615C39.212 1.57 44.99 5.505 44.99 7.348c0 2.085-1.646 1.965-5.088-.37-3.834-2.603-8.566-3.608-10.171-2.595-3.399 2.144-4.4 4.432-4.394 11.326.003 3.68.267 7.632.587 8.784 0 0 .673 1.308 1.292 1.607 1.694.816 5.64.028 5.64.028 5.966-.433 6.464-.608 8.196-2.867 1.014-1.322 4.72-5.412 8.465-9.087C63.15.796 75.29-1.871 80.083 7.395c1.476 2.855 1.545 13 .101 14.974-1.882 2.574-3.062.676-2.563-4.125.518-4.99-.368-9.784-2.137-11.552-1.96-1.96-6.786-.425-12.236 2.48C58.125 11.9 44.99 22.925 44.99 24.797c0 .811 1.324 1.07 5.49 1.07 11.853 0 29.025 3.725 37.943 8.232 5.142 2.598 10.356 7.587 11.227 10.742 1.023 3.703-.228 7.436-3.435 10.252-3.44 3.02-8.655 5.695-10.056 5.157-2.14-.821-1.012-2.786 2.672-4.653 4.038-2.046 6.491-4.977 6.483-7.067-.003-.71.704-3.163-.044-4.298-5.145-7.802-22.706-13.592-45.407-14.97 0 0-5.615-1.14-8.172.142-2.557 1.282-5.126 6.462-5.126 6.462-2.574 3.921-3.392 4.887-3.436 7.696-.056 3.559 1.967 5.736 4.047 9.88 8.281 16.502 18.004 28.72 26.712 32.98 5.038 2.465 7.264 2.14 9.932-1.448 1.405-1.89 1.608-3.17 1.522-9.636-.114-8.599-1.779-15.648-6.44-27.268-3.497-8.715-3.691-9.87-1.661-9.87 1.01 0 3.183 1.745 4.638 4.988 9.36 20.859 9.852 40.972 2.597 46.679-2.557 2.012-8.078 2.011-12.14-.001zm-28.88-55.524c1.378-2.107 2.487-3.003 1.306-4.137-1.341-1.287-5.334-.086-6.302.551-.93.612-.161 6.573 1.714 7.432 1.116.512 1.904-1.738 3.282-3.846zm13.076 15.424c-1.968-1.969-2.039-6.25-.132-7.975 1.906-1.725 7.061-1.46 8.674.322 3.085 3.41-.105 9.194-4.687 9.194-1.285 0-2.998-.685-3.855-1.541z" fill="#fe9cc1"/></svg>