<svg xmlns="http://www.w3.org/2000/svg" viewBox="0 0 99.999996 91.510403" height="97.611" width="106.667"><path d="M23.807 1.902c-12.945-.112-18.56 3.46-20.94 13.132-1.926 19.691-.386 39.803-.303 59.643C4.289 85.207 15.568 91.063 25.576 89.3c19.42-.242 38.927.618 58.296-.402 10.333-1.98 15.619-13.035 13.914-22.75-.063-16.874.844-33.902-.362-50.683C95.06 5.162 87.37 1.724 73.802 2.003c-15.769-.015-31.537-.05-47.306-.03-.93-.04-1.826-.063-2.69-.071zm46.657 7.442c4.074.013 8.126.196 12.118.825 7.042 2.294 8.908 10.422 7.888 16.965-.239 15.362.52 30.889-.43 46.147-1.991 7.226-9.206 8.806-17.079 8.612-18.216-.374-36.564.735-54.718-.434-7.677-2.149-8.469-9.641-8.525-18.089.231-14.921-.508-29.926.294-44.806 1.622-7.506 7.161-8.849 16.87-9.064 7.734-.056 15.468-.053 23.2-.061 6.74.337 13.592-.116 20.382-.095zM28.005 20.635c-3.747-.041-6.94.092-7.562.624-1.66 1.417-.756 24.35-.756 24.35s-.272 22.354 1.16 24.351c.716.998 6.56.997 12.223.748 5.663-.25 10.44.188 11.147-.748.707-.936 1.566-6.193-.223-8.048-1.628-1.689-8.712-.478-12.232-1.351-4.166.068-2.292-10.214-2.394-16.479-.1-6.264-2.449-15.165 4.305-15.105 4.572.15 7.638.763 10.1-.11 1.207-.428 1.599-1.729 1.267-3.372-.332-1.644.766-3.911-2.127-4.571-.875-.2-5.86-.019-11.05-.196a168.65 168.65 0 0 0-3.858-.093zm30.049.137c-1.256.007-2.08.09-2.273.353-.992 1.35-.511 4.001-.511 4.001.778 3.225 2.196 3.94 5.141 3.84 2.946-.102 6.926-.057 9.24.706 2.52 4.354.384 13.363 1.09 19.53-.09 6.782 3.53 13.603-6.867 12.233-6.436-.136-7.71 1.673-8.3 4.439-.642 3.009.509 5.106 3.53 5.363 0 0 18.099 1.318 20.049-1.277 1.95-2.595 1.562-47.462 0-48.701-.644-.51-6.487-.51-12.17-.383-3.551.08-6.838-.117-8.93-.104z" fill="none" stroke="#fe9cc1" stroke-width="3.799"/></svg>