<svg xmlns="http://www.w3.org/2000/svg" viewBox="0 0 120 120" id="Layer_1"><style id="style3">.st0{fill:#414042}.st1{fill:#769cd2}.st2{fill:#26b8b0}.st3{fill:#9c82bc}.st4{fill:#676767}</style><path id="path4146" d="M58.94 120.367c-.26-.083-13.071-5.355-28.47-11.715C4.378 97.876 2.424 97.04 1.76 96.379.42 95.048.511 97.295.511 65.958V38.043l.408-.481c.224-.265.895-.687 1.491-.937.596-.25 10.367-4.267 21.712-8.926 11.345-4.66 20.882-8.576 21.193-8.705l.566-.233-.359.465c-2.612 3.388-3.995 6.338-4.718 10.066-.39 2.018-1.03 9.457 4.259 12.864 5.288 3.407 9.523 3.85 16.996 3.875 7.473.024 14.08-1.078 18.632-5.302 1.775-1.678 2.931-3.935 2.951-7.593.02-3.75-.513-6.349-2.25-9.84-.507-1.017-.827-1.813-.711-1.768 1.674.65 37.041 15.259 37.499 15.49.35.176.771.57.937.873.285.521.305 2.12.348 28.244.051 31.127.14 28.905-1.205 30.241-.668.664-2.599 1.49-28.926 12.363-29.125 12.03-29.136 12.034-30.395 11.628zm26.768-19.31l25.274-10.432v-4.332c0-4.044-.02-4.327-.299-4.249-.164.046-11.383 4.673-24.932 10.282-23.943 9.911-24.665 10.197-25.742 10.197-1.077 0-1.803-.287-25.742-10.197C20.717 86.717 9.498 82.09 9.334 82.045c-.278-.079-.298.204-.298 4.248v4.332L34.48 101.14c13.994 5.783 25.559 10.477 25.7 10.43.14-.046 11.628-4.778 25.528-10.515zm0-17.901l25.274-10.43v-4.333c0-4.044-.02-4.327-.299-4.249-.164.046-11.383 4.673-24.932 10.281-23.943 9.912-24.665 10.198-25.742 10.198-1.077 0-1.803-.288-25.742-10.197C20.717 68.817 9.498 64.19 9.334 64.144c-.278-.078-.298.205-.298 4.249v4.332L34.48 83.24c13.994 5.784 25.559 10.478 25.7 10.431.14-.046 11.628-4.778 25.528-10.515zm0-17.9l25.274-10.43v-4.688l-1.236.931c-2.646 1.994-5.02 2.812-10.594 3.652-3.705.56-5.632 1.904-8.3 3.197-3.146 1.524-5.702 4.254-9.023 5.346-3.136 1.03-6.665.138-9.855.992-3.9 1.045-7.009 4.887-11.046 4.975-4.363.094-7.976-3.61-12.16-4.854-3.873-1.15-8.154-.831-11.884-2.383-3.307-1.376-5.618-4.608-8.925-5.982-4.317-1.794-9.788-.034-13.753-2.748-2.229-1.52-3.684-3.473-5.085-6.297l-.046 3.904c-.025 2.147-.025 3.923 0 3.947.26.247 50.915 21.016 51.104 20.953.14-.047 11.629-4.779 25.53-10.516zm-42.53-32.932c.13-3.376.816-5.799 2.443-8.627 2.894-5.03 8.036-8.557 13.682-9.383 1.346-.197 4.862-.14 6.591.108.663.094.697.075.995-.556.169-.36.868-1.497 1.552-2.528C72.992 4.482 79.056.545 86.557-.426c.839-.109.904-.09 1.087.313.108.237.147.687.087 1.007l-.109.579-1.66.195c-5.176.607-10.287 3.422-13.95 7.682-2.59 3.01-5.29 7.837-6.66 11.904-.565 1.676-.62 1.966-.4 2.11.141.091.438.146.66.122.354-.039.494-.301 1.12-2.09.745-2.136 2.007-5.122 2.38-5.63.2-.275.332-.237 1.77.506 4.823 2.49 8.2 6.69 9.677 12.036.342 1.24.467 2.166.54 4.016-.006 10.036-13.192 11.252-19.505 11.38-10.397-.452-18.64-1.922-18.415-11.38zm27.528-4.912c.333-.276.251-.784-.17-1.057-.211-.137-1.074-.37-1.918-.52-3.506-.622-4.454-.93-5.934-1.931-.768-.52-1.685-1.2-2.036-1.513-.983-.874-1.833-.71-1.833.352 0 .399.216.72.98 1.462 1.573 1.525 4.795 3.01 7.428 3.42 1.057.166 3.184.035 3.483-.213z" fill="#4d3829"/></svg>