<svg xmlns="http://www.w3.org/2000/svg" viewBox="0 0 120 120" id="Layer_1"><style id="style3">.st0{fill:#414042}.st1{fill:#769cd2}.st2{fill:#26b8b0}.st3{fill:#9c82bc}.st4{fill:#676767}</style><path id="path4146" d="M58.94 120.367c-.26-.083-13.07-5.355-28.47-11.715C4.378 97.876 2.424 97.04 1.76 96.38.42 95.047.51 97.294.51 65.957V38.043l.408-.48c.224-.266.895-.688 1.49-.938.597-.25 10.368-4.267 21.713-8.926 11.345-4.66 20.882-8.577 21.193-8.706l.566-.233-.36.466c-2.61 3.388-3.994 6.338-4.717 10.066-.39 2.018-1.03 9.457 4.26 12.864 5.287 3.407 9.522 3.85 16.995 3.875 7.473.025 14.08-1.077 18.632-5.3 1.775-1.68 2.93-3.936 2.95-7.594.022-3.75-.512-6.35-2.25-9.84-.506-1.017-.826-1.813-.71-1.768 1.674.65 37.04 15.26 37.5 15.49.348.176.77.57.936.873.285.522.305 2.12.348 28.245.05 31.127.14 28.905-1.205 30.24-.667.665-2.598 1.49-28.925 12.364C60.21 120.767 60.2 120.772 58.94 120.366zm26.768-19.31l25.274-10.432v-4.332c0-4.044-.02-4.327-.3-4.25-.163.047-11.382 4.674-24.93 10.283-23.944 9.91-24.666 10.197-25.743 10.197-1.078 0-1.804-.287-25.743-10.197-13.55-5.61-24.77-10.235-24.933-10.28-.278-.08-.298.203-.298 4.247v4.332L34.48 101.14c13.994 5.784 25.56 10.478 25.7 10.432.14-.047 11.628-4.78 25.528-10.516zm0-17.9l25.274-10.432v-4.332c0-4.044-.02-4.327-.3-4.25-.163.047-11.382 4.674-24.93 10.282-23.944 9.912-24.666 10.198-25.743 10.198-1.078 0-1.804-.288-25.743-10.197-13.55-5.61-24.77-10.235-24.933-10.282-.278-.078-.298.205-.298 4.25v4.33L34.48 83.24c13.994 5.784 25.56 10.478 25.7 10.43.14-.045 11.628-4.777 25.528-10.514zm0-17.9l25.274-10.432V50.138l-1.236.93c-2.646 1.995-5.02 2.813-10.594 3.653-3.705.56-5.632 1.905-8.3 3.198-3.146 1.524-5.702 4.254-9.023 5.346-3.137 1.03-6.666.138-9.856.992-3.9 1.045-7.01 4.887-11.046 4.975-4.363.095-7.976-3.61-12.16-4.853-3.873-1.15-8.154-.83-11.884-2.383-3.307-1.376-5.618-4.608-8.925-5.982-4.318-1.794-9.79-.034-13.754-2.748-2.23-1.52-3.684-3.473-5.085-6.297l-.045 3.904c-.025 2.148-.025 3.924 0 3.948.26.247 50.915 21.016 51.104 20.953.14-.046 11.628-4.778 25.528-10.515zm-42.53-32.933c.13-3.376.816-5.8 2.443-8.627 2.895-5.03 8.037-8.557 13.683-9.383 1.346-.197 4.862-.14 6.59.108.664.094.698.075.996-.556.168-.36.867-1.497 1.55-2.528C72.993 4.482 79.057.545 86.558-.426c.84-.11.904-.09 1.087.313.108.237.147.687.087 1.007l-.108.58-1.66.194c-5.176.607-10.287 3.422-13.95 7.682-2.59 3.01-5.29 7.837-6.66 11.904-.565 1.676-.62 1.966-.4 2.11.14.09.438.146.66.122.354-.04.494-.3 1.12-2.09.745-2.136 2.007-5.122 2.38-5.63.2-.275.332-.237 1.77.506 4.823 2.49 8.2 6.69 9.677 12.036.34 1.24.466 2.166.54 4.016-.007 10.036-13.193 11.252-19.506 11.38-10.397-.452-18.64-1.922-18.415-11.38zm27.528-4.912c.333-.276.25-.784-.17-1.057-.21-.137-1.074-.37-1.918-.52-3.506-.622-4.454-.93-5.934-1.93-.768-.52-1.685-1.2-2.036-1.514-.983-.873-1.833-.71-1.833.353 0 .4.216.72.98 1.462 1.573 1.525 4.795 3.01 7.428 3.42 1.057.166 3.184.035 3.483-.213z" fill="#4d3829"/></svg>