<svg xmlns="http://www.w3.org/2000/svg" viewBox="0 0 414.8813 12.8348" height="13.69" width="442.54"><path d="M0 0c.536 4.53 6.407 5.996 10.492 6.95 6.633 1.55 13.462-2.648 20.273-2.57 6.717.077 8.93 4.75 19.928 2.992 4.776-.763 9.244 1.67 14.237 1.535C71.53 8.73 77.237 5.48 82.416 5.9c11.596.936 12.666 5.13 21.483 4.946 11.35-.24 17.03-11.907 24.784-7.473 18.232 10.424 19.422-1.952 34.37 2.84 6.916 2.22 10.784 5.334 22.47 5.475 14.43.174 17.032-5.613 29.084-6.106 14.678-.6 12.285 4.328 24.44 4.63 11.23.28 15.337-4.628 21.163-3.05 7.23 1.956 6.558 5.597 14.132 5.672 9.756.096 9.762-6.305 19.58-6.936 5.873-.377 5.487 4.318 13.793 4.783 11.35.637 17.892-3.887 23.88-3.834 10.153.088 17.662 5.494 28.423 5.052 10.44-.43 12.238-7 22.763-6.97 6.57.02 6.94 4.273 13.962 4.43 9.404.21 12.707-.862 16.85-5.006 1.068-1.07 1.29-1.625 1.29-4.352z" fill="#fe9cad" stroke-width="0" stroke-linecap="round" stroke-linejoin="round"/></svg>