<svg xmlns="http://www.w3.org/2000/svg" viewBox="0 0 414.8813 12.8348" height="13.69" width="442.54"><path d="M0 0c.536 4.53 6.407 5.996 10.492 6.95 6.633 1.55 13.462-2.648 20.273-2.57 6.717.077 8.929 4.75 19.928 2.992 4.776-.763 9.244 1.67 14.237 1.535 6.6-.178 12.307-3.427 17.486-3.008 11.596.937 12.666 5.132 21.483 4.947 11.351-.24 14.313-5.977 29.135-2.728 13.237 2.902 15.072-6.697 30.019-1.904 6.917 2.219 10.785 5.333 22.472 5.474 14.428.174 17.03-5.613 29.083-6.106 14.678-.6 12.285 4.328 24.439 4.63 11.23.28 15.338-4.628 21.164-3.05 7.23 1.956 6.557 5.597 14.13 5.672 9.757.096 9.763-6.305 19.581-6.936 5.873-.377 5.487 4.318 13.793 4.783 11.35.636 17.892-3.888 23.88-3.835 10.153.088 17.662 5.494 28.423 5.052 10.439-.429 12.238-7 22.763-6.97 6.57.019 6.938 4.273 13.961 4.43 9.404.21 12.707-.862 16.849-5.006 1.07-1.07 1.29-1.625 1.29-4.352z" fill="#fe9cc1" stroke-width="0" stroke-linecap="round" stroke-linejoin="round"/></svg>