<svg xmlns="http://www.w3.org/2000/svg" id="Layer_1" viewBox="0 0 120 120"><style id="style3">.st0{fill:#414042}.st1{fill:#769cd2}.st2{fill:#26b8b0}.st3{fill:#9c82bc}.st4{fill:#676767}</style><circle id="path4141" cx="60" cy="60" r="54.73" fill="#fe9cc1" stroke-width="3" stroke-linecap="round" stroke-linejoin="round"/><path id="path4146" d="M59.327 98.307c-.164-.053-8.294-3.398-18.066-7.434-16.557-6.839-17.797-7.369-18.219-7.788-.85-.845-.791.58-.791-19.304V46.067l.259-.306c.142-.168.568-.435.946-.594.379-.159 6.578-2.708 13.778-5.664l13.448-5.524.36-.148-.228.295c-1.658 2.15-2.536 4.022-2.994 6.388-.249 1.28-.654 6 2.702 8.163 3.356 2.162 6.043 2.443 10.785 2.459 4.743.015 8.935-.684 11.824-3.364 1.126-1.066 1.86-2.497 1.872-4.82.013-2.378-.326-4.028-1.428-6.243-.322-.645-.525-1.15-.451-1.122 1.062.412 23.505 9.683 23.795 9.83.222.111.49.36.595.554.181.33.194 1.345.22 17.922.033 19.752.09 18.342-.764 19.19-.424.422-1.649.945-18.355 7.845-18.481 7.633-18.489 7.636-19.288 7.379zm16.987-12.254l16.037-6.62v-2.748c0-2.567-.012-2.746-.19-2.696-.103.029-7.223 2.964-15.82 6.524-15.194 6.29-15.652 6.47-16.335 6.47-.684 0-1.145-.182-16.336-6.47-8.597-3.56-15.717-6.495-15.82-6.524-.177-.05-.19.13-.19 2.696v2.748l16.146 6.673c8.88 3.67 16.218 6.649 16.308 6.62.089-.03 7.379-3.033 16.2-6.673zm0-11.36l16.037-6.618v-2.75c0-2.565-.012-2.745-.19-2.695-.103.029-7.223 2.965-15.82 6.524-15.194 6.29-15.652 6.471-16.335 6.471-.684 0-1.145-.183-16.336-6.471-8.597-3.559-15.717-6.495-15.82-6.524-.177-.05-.19.13-.19 2.696v2.749l16.146 6.673c8.88 3.67 16.218 6.648 16.308 6.619.089-.03 7.379-3.033 16.2-6.673zm0-11.358l16.037-6.619v-2.974l-.784.59c-1.68 1.266-3.186 1.785-6.723 2.318-2.35.355-3.574 1.208-5.267 2.029-1.996.967-3.618 2.7-5.725 3.392-1.99.654-4.23.088-6.253.63-2.476.663-4.448 3.101-7.01 3.157-2.769.06-5.062-2.292-7.716-3.08-2.458-.73-5.175-.528-7.542-1.513-2.098-.873-3.564-2.924-5.663-3.796-2.74-1.138-6.211-.02-8.727-1.744-1.415-.964-2.338-2.203-3.227-3.995l-.03 2.477c-.015 1.362-.015 2.49 0 2.505.166.156 32.31 13.336 32.43 13.296.089-.03 7.379-3.033 16.2-6.673zM49.326 42.438c.082-2.143.517-3.68 1.55-5.474 1.836-3.193 5.099-5.43 8.682-5.955.854-.125 3.085-.088 4.182.069.42.06.443.048.631-.353.108-.228.551-.95.986-1.604 2.887-4.35 6.735-6.85 11.495-7.465.532-.07.573-.057.69.198.069.151.093.436.055.64l-.069.367-1.053.123c-3.285.386-6.528 2.172-8.853 4.876-1.643 1.91-3.356 4.972-4.226 7.553-.358 1.064-.393 1.248-.253 1.339.089.058.277.093.418.077.225-.024.314-.19.71-1.326.474-1.355 1.275-3.25 1.511-3.573.127-.174.211-.15 1.124.322 3.06 1.58 5.202 4.245 6.14 7.637.217.787.296 1.375.342 2.549-.003 6.368-8.37 7.14-12.376 7.221-6.598-.287-11.828-1.22-11.686-7.221zm17.468-3.117c.211-.175.159-.498-.108-.671-.134-.087-.682-.235-1.217-.33-2.225-.395-2.826-.59-3.766-1.225-.487-.33-1.069-.762-1.292-.96-.623-.555-1.163-.451-1.163.223 0 .253.137.457.622.928.998.968 3.043 1.91 4.713 2.17.67.105 2.021.023 2.21-.135z" fill="#4d3829"/></svg>