<svg xmlns="http://www.w3.org/2000/svg" viewBox="0 0 249.99998 249.99998" height="266.667" width="266.667"><path d="M250 125a125 125 0 0 1-125 125A125 125 0 0 1 0 125 125 125 0 0 1 125 0a125 125 0 0 1 125 125z" fill="#fe9cc1" stroke-width="0" stroke-linecap="round" stroke-linejoin="round"/><path d="M154.846 30.877c-.14.008-.319.029-.55.059-8.275 1.071-14.964 5.415-19.984 12.977-.755 1.138-1.526 2.392-1.713 2.789-.328.696-.365.717-1.096.613-1.907-.273-5.787-.335-7.271-.118-6.228.91-11.901 4.8-15.094 10.35-1.794 3.12-2.55 5.791-2.693 9.516-.247 10.433 8.844 12.055 20.314 12.554 6.963-.14 21.51-1.483 21.515-12.554-.08-2.04-.217-3.062-.595-4.43-1.63-5.897-5.354-10.53-10.673-13.277-1.587-.82-1.734-.861-1.955-.559-.41.562-1.803 3.855-2.626 6.211-.69 1.974-.844 2.263-1.234 2.306-.245.027-.572-.035-.727-.136-.243-.158-.184-.477.44-2.326 1.512-4.486 4.49-9.81 7.345-13.13 4.042-4.7 9.682-7.807 15.39-8.476l1.832-.215.12-.639c.066-.353.024-.848-.096-1.11-.152-.334-.23-.428-.65-.405zm-45.42 21.224l-.624.258-23.378 9.602c-12.515 5.14-23.292 9.57-23.95 9.847-.658.276-1.4.74-1.647 1.033l-.449.532v30.793c0 34.568-.102 32.09 1.376 33.558.733.73 2.889 1.65 31.672 13.538 16.985 7.015 31.116 12.83 31.404 12.923h.001c1.388.447 1.412.438 33.529-12.827 29.042-11.995 31.17-12.905 31.908-13.638 1.483-1.474 1.386.978 1.329-33.359-.048-28.818-.068-30.582-.383-31.156-.183-.336-.649-.769-1.034-.963-.505-.255-39.52-16.371-41.366-17.088-.128-.049.225.829.784 1.95 1.917 3.851 2.506 6.719 2.483 10.854-.022 4.036-1.296 6.525-3.255 8.377-5.02 4.66-12.31 5.876-20.554 5.849-8.243-.028-12.915-.517-18.748-4.276-5.834-3.758-5.129-11.964-4.697-14.19.797-4.112 2.322-7.366 5.204-11.103l.395-.514zm15.173 3.395c.324.048.709.25 1.115.61.388.346 1.4 1.096 2.246 1.669 1.634 1.104 2.68 1.443 6.547 2.13.931.164 1.882.422 2.115.573.465.301.556.862.188 1.167-.33.273-2.676.418-3.842.236-2.904-.454-6.458-2.091-8.192-3.774-.844-.818-1.083-1.172-1.083-1.612 0-.733.367-1.078.906-.999zm-55.723 27.72c1.545 3.115 3.15 5.27 5.608 6.947 4.374 2.994 10.41 1.05 15.172 3.03 3.648 1.516 6.197 5.082 9.844 6.6 4.115 1.712 8.838 1.359 13.11 2.628 4.615 1.372 8.6 5.46 13.413 5.355 4.454-.096 7.884-4.335 12.187-5.487 3.518-.943 7.411.042 10.871-1.095 3.663-1.204 6.483-4.216 9.953-5.897 2.943-1.427 5.069-2.91 9.155-3.527 6.15-.927 8.768-1.83 11.686-4.028l1.364-1.028v5.17l-27.88 11.507c-15.334 6.328-28.006 11.548-28.162 11.6-.208.07-56.087-22.842-56.373-23.115-.028-.026-.028-1.985 0-4.354l.052-4.306zm.132 18.942a.182.182 0 0 1 .102.007c.181.051 12.558 5.155 27.504 11.342 26.408 10.932 27.208 11.248 28.396 11.248 1.188 0 1.985-.316 28.397-11.25 14.945-6.187 27.322-11.29 27.503-11.341.308-.086.329.226.329 4.687v4.78l-27.88 11.506c-15.334 6.328-28.006 11.548-28.162 11.6-.155.05-12.911-5.126-28.348-11.506L68.78 111.63v-4.779c0-3.903.018-4.63.227-4.692zm0 19.746a.182.182 0 0 1 .102.007c.181.05 12.558 5.155 27.504 11.342 26.408 10.931 27.208 11.248 28.396 11.248 1.188 0 1.985-.315 28.397-11.248 14.945-6.188 27.322-11.292 27.503-11.342.308-.086.329.225.329 4.686v4.78l-27.88 11.506c-15.334 6.328-28.006 11.548-28.162 11.599-.155.051-12.911-5.126-28.348-11.506l-28.068-11.6v-4.779c0-3.903.018-4.63.227-4.693zm26.861 58.385c-3.828 0-7.404 1.41-10.728 4.232a6.905 6.905 0 0 1-1.259-1.008l-1.562-1.511c-.605-.605-1.142-.924-1.612-.958-.671 0-1.008.454-1.008 1.36 0 .504.219 1.26.656 2.267.47.974 1.09 1.915 1.863 2.821a26.94 26.94 0 0 0-2.72 4.08c-2.417 4.5-3.626 9.252-3.626 14.255 0 4.063 1.259 7.237 3.777 9.52 2.519 2.284 6.062 3.426 10.629 3.426 3.76 0 7.018-.907 9.772-2.72.854-.555 1.586-1.2 2.223-1.918a7.339 7.339 0 0 0 1.596 2.422c1.444 1.478 3.34 2.216 5.692 2.216 2.384 0 4.282-.453 5.692-1.36a11.237 11.237 0 0 0 3.425-3.577c.604 3.123 1.797 4.685 3.577 4.685 1.31 0 2.652-.32 4.03-.957a15.451 15.451 0 0 0 3.726-2.417 14.604 14.604 0 0 0 2.088-2.263c-.01.453-.02.906-.02 1.355 0 3.258.79 4.887 2.368 4.887 1.343 0 2.668-.521 3.978-1.562.504-.403.79-.907.857-1.511.067-.638.1-1.276.1-1.914l.353-6.901a87.125 87.125 0 0 0 1.713 4.08c2.15 4.802 4.584 7.203 7.304 7.203 2.754.034 5.238-1.058 7.454-3.274.356-.356.673-.714.972-1.074.025.055.048.114.074.167 1.444 2.888 4.165 4.332 8.161 4.332 5.037 0 9-1.36 11.887-4.08 1.176-1.108 2.015-2.233 2.519-3.375.504-1.175.755-2.233.755-3.174 0-.94-.235-1.41-.705-1.41-.302 0-.738.336-1.309 1.008-.57.638-1.31 1.343-2.217 2.116-2.452 2.082-4.986 3.122-7.605 3.122-1.243-.034-2.35-.302-3.325-.806-.974-.504-1.479-1.36-1.512-2.569v-1.258a46.787 46.787 0 0 1 4.081-1.613 29.104 29.104 0 0 0 3.828-1.662c1.141-.638 2.066-1.41 2.77-2.316.74-.94 1.109-2.133 1.109-3.577s-.504-2.62-1.511-3.526c-.974-.907-2.385-1.36-4.232-1.36-1.813 0-3.526.42-5.138 1.26-1.612.805-3.04 1.946-4.282 3.424-1.209 1.478-2.182 3.241-2.921 5.29-.566 1.543-.91 3.046-1.043 4.51-.287.345-.532.654-.859 1.03a16.737 16.737 0 0 1-2.266 2.065c-.84.638-1.78.957-2.821.957-2.15 0-3.678-1.797-4.585-5.39 2.015.034 4.014-.637 5.995-2.014 1.981-1.377 2.972-3.056 2.972-5.037 0-1.982-.571-3.476-1.713-4.483-1.142-1.041-2.787-1.561-4.936-1.561-1.074 0-2.015.15-2.821.453-2.284.84-4.013 2.484-5.188 4.935l.503-4.23a40.924 40.924 0 0 1 1.713-2.519c.571-.806 1.091-1.579 1.561-2.318.47-.772.84-1.544 1.109-2.316a6.102 6.102 0 0 0 .402-2.417c0-.84-.268-1.68-.805-2.519-.538-.873-1.041-1.512-1.511-1.915-.47-.437-.924-.654-1.36-.654-.404 0-.773.1-1.109.301-.336.202-.806.74-1.41 1.613-.571.873-1.393 2.619-2.468 5.238-1.04 2.586-2.115 6.448-3.224 11.586a76.54 76.54 0 0 0-1.199 7.165c-.245.16-.545.43-.918.844-3.358 3.492-5.474 5.238-6.347 5.238-.706 0-1.057-1.393-1.057-4.18s.134-4.953.403-6.498c.906-1.545 1.594-2.872 2.064-3.98 0-.906-.537-1.864-1.611-2.871-1.041-1.041-2.15-1.561-3.325-1.561-.604 0-1.142.487-1.612 1.46-.974-.537-2.233-.805-3.778-.805-1.544 0-3.022.217-4.432.654-1.377.436-2.871 1.344-4.483 2.72-3.047 2.643-4.869 6.067-5.469 10.27a11.856 11.856 0 0 1-2.33 2.273c-2.653 1.947-5.491 2.921-8.514 2.921-4.902 0-7.354-3.072-7.354-9.218 0-4.432 1.193-8.68 3.577-12.744 2.787 1.075 5.474 1.613 8.06 1.613 2.619 0 4.7-.605 6.245-1.813 1.545-1.21 2.318-2.705 2.318-4.485 0-1.175-.202-2.165-.605-2.971-1.141-2.15-3.644-3.224-7.506-3.224zm.052 4.987c1.645 0 2.467.654 2.467 1.964 0 1.108-1.007 1.663-3.022 1.663-2.015 0-3.878-.285-5.59-.856 1.846-1.847 3.895-2.771 6.145-2.771zm23.363 12.442c-.672 2.686-1.008 5.91-1.008 9.67-.302 1.075-.688 1.982-1.158 2.721-1.344 2.15-3.04 3.24-5.088 3.274-1.914 0-2.871-1.293-2.871-3.879 0-3.156 1.008-5.775 3.023-7.857s4.382-3.392 7.102-3.93zm48.597.957c1.041 0 1.563.42 1.563 1.259-.034.94-.555 1.78-1.563 2.519-.47.335-1.023.688-1.661 1.058-.605.369-1.26.788-1.966 1.258.672-4.063 1.881-6.094 3.627-6.094zm-22 .956c1.377 0 2.066.605 2.066 1.814 0 .604-.202 1.176-.605 1.713-1.276 1.679-3.66 2.62-7.153 2.821a17.5 17.5 0 0 1 1.21-2.368c1.612-2.653 3.106-3.98 4.483-3.98z" fill="#4d3829"/></svg>