<svg xmlns="http://www.w3.org/2000/svg" viewBox="0 0 249.99998 249.99998" height="266.667" width="266.667"><path d="M250 125a125 125 0 0 1-125 125A125 125 0 0 1 0 125 125 125 0 0 1 125 0a125 125 0 0 1 125 125z" fill="#fe9cc1" stroke-width="0" stroke-linecap="round" stroke-linejoin="round"/><path d="M154.846 30.877c-.14.008-.32.03-.55.06-8.275 1.07-14.964 5.414-19.984 12.976-.755 1.138-1.526 2.392-1.713 2.79-.33.695-.366.716-1.097.612-1.907-.273-5.787-.335-7.27-.118-6.23.91-11.902 4.8-15.095 10.35-1.794 3.12-2.55 5.79-2.693 9.516-.247 10.433 8.844 12.055 20.314 12.554 6.962-.14 21.508-1.483 21.514-12.554-.08-2.04-.217-3.062-.595-4.43-1.63-5.897-5.355-10.53-10.674-13.277-1.587-.82-1.734-.86-1.955-.56-.41.563-1.802 3.856-2.625 6.212-.69 1.974-.844 2.263-1.234 2.306-.244.027-.57-.035-.726-.136-.243-.158-.184-.477.44-2.326 1.512-4.486 4.49-9.81 7.345-13.13 4.04-4.7 9.68-7.807 15.39-8.476l1.83-.215.12-.638c.067-.353.025-.848-.095-1.11-.152-.334-.23-.428-.65-.405zM109.426 52.1l-.624.26-23.378 9.6a18074.82 18074.82 0 0 0-23.95 9.848c-.658.276-1.4.74-1.647 1.033l-.45.533v30.793c0 34.568-.1 32.09 1.377 33.558.733.73 2.89 1.65 31.672 13.538 16.985 7.015 31.116 12.83 31.404 12.923 1.39.447 1.413.438 33.53-12.827 29.042-11.995 31.17-12.905 31.908-13.638 1.483-1.474 1.386.978 1.33-33.36-.05-28.817-.07-30.58-.384-31.155-.183-.336-.65-.77-1.034-.963-.505-.255-39.52-16.37-41.366-17.088-.128-.05.225.83.784 1.95 1.917 3.85 2.506 6.72 2.483 10.854-.02 4.036-1.295 6.525-3.254 8.377-5.02 4.66-12.31 5.876-20.554 5.85-8.243-.03-12.915-.518-18.748-4.277-5.834-3.758-5.13-11.964-4.697-14.19.797-4.112 2.322-7.366 5.204-11.103l.396-.514zm15.173 3.396c.323.048.708.25 1.114.61.388.346 1.4 1.096 2.246 1.67 1.634 1.103 2.68 1.442 6.547 2.128.93.165 1.882.423 2.115.574.465.3.556.862.188 1.167-.33.273-2.676.418-3.842.236-2.904-.453-6.458-2.09-8.192-3.773-.844-.818-1.083-1.172-1.083-1.612 0-.733.367-1.078.906-1zm-55.724 27.72c1.545 3.115 3.15 5.27 5.608 6.947 4.374 2.994 10.41 1.05 15.172 3.03 3.648 1.516 6.197 5.082 9.844 6.6 4.115 1.712 8.838 1.36 13.11 2.628 4.615 1.373 8.6 5.46 13.413 5.356 4.454-.096 7.884-4.335 12.187-5.487 3.518-.944 7.41.04 10.87-1.096 3.664-1.204 6.484-4.216 9.954-5.897 2.943-1.427 5.07-2.91 9.155-3.527 6.148-.927 8.767-1.83 11.685-4.028l1.364-1.028V91.883l-27.88 11.507c-15.335 6.33-28.007 11.55-28.163 11.6-.208.07-56.087-22.84-56.373-23.114-.028-.026-.028-1.985 0-4.354l.052-4.306zm.132 18.942a.182.182 0 0 1 .102.007c.18.05 12.558 5.155 27.504 11.342 26.408 10.932 27.208 11.248 28.396 11.248 1.188 0 1.985-.316 28.397-11.25 14.945-6.187 27.322-11.29 27.503-11.34.308-.087.33.225.33 4.686v4.78l-27.88 11.507c-15.335 6.328-28.007 11.548-28.163 11.6-.155.05-12.91-5.126-28.348-11.506l-28.07-11.6v-4.78c0-3.902.02-4.63.228-4.69zm0 19.746a.182.182 0 0 1 .102.007c.18.052 12.558 5.156 27.504 11.343 26.408 10.93 27.208 11.248 28.396 11.248 1.188 0 1.985-.314 28.397-11.247 14.945-6.188 27.322-11.292 27.503-11.342.308-.085.33.226.33 4.687v4.78l-27.88 11.506c-15.335 6.328-28.007 11.548-28.163 11.6-.155.05-12.91-5.127-28.348-11.507l-28.07-11.6v-4.78c0-3.902.02-4.63.228-4.692zm26.86 58.385c-3.827 0-7.403 1.41-10.727 4.23a6.905 6.905 0 0 1-1.258-1.007l-1.562-1.51c-.605-.606-1.142-.925-1.612-.96-.67 0-1.008.455-1.008 1.362 0 .503.22 1.26.656 2.266.47.975 1.09 1.916 1.863 2.822a26.94 26.94 0 0 0-2.72 4.08c-2.418 4.5-3.627 9.252-3.627 14.255 0 4.063 1.26 7.237 3.777 9.52 2.52 2.284 6.062 3.426 10.63 3.426 3.76 0 7.017-.907 9.77-2.72.855-.555 1.587-1.2 2.224-1.918a7.34 7.34 0 0 0 1.596 2.422c1.444 1.478 3.34 2.216 5.692 2.216 2.384 0 4.282-.453 5.692-1.36a11.237 11.237 0 0 0 3.425-3.577c.603 3.123 1.796 4.685 3.576 4.685 1.31 0 2.652-.318 4.03-.956a15.45 15.45 0 0 0 3.726-2.417c.807-.712 1.5-1.468 2.088-2.263-.01.453-.02.906-.02 1.355 0 3.257.79 4.886 2.368 4.886 1.343 0 2.668-.52 3.978-1.562.504-.403.79-.907.857-1.51.067-.64.1-1.277.1-1.915l.353-6.902a87.125 87.125 0 0 0 1.713 4.08c2.148 4.802 4.583 7.203 7.303 7.203 2.754.035 5.238-1.057 7.454-3.273.356-.356.673-.714.972-1.074.024.055.047.114.073.167 1.444 2.888 4.165 4.332 8.16 4.332 5.038 0 9-1.36 11.888-4.08 1.177-1.108 2.016-2.233 2.52-3.375.504-1.175.755-2.233.755-3.174 0-.94-.235-1.41-.705-1.41-.302 0-.738.336-1.31 1.008-.57.64-1.31 1.344-2.216 2.117-2.452 2.082-4.986 3.122-7.605 3.122-1.244-.035-2.352-.303-3.326-.807-.974-.504-1.48-1.36-1.512-2.57v-1.257a46.787 46.787 0 0 1 4.08-1.613 29.104 29.104 0 0 0 3.83-1.662c1.14-.637 2.065-1.41 2.77-2.315.738-.94 1.108-2.133 1.108-3.577s-.504-2.62-1.51-3.526c-.975-.907-2.386-1.36-4.233-1.36-1.813 0-3.526.42-5.138 1.26-1.613.805-3.04 1.946-4.283 3.424-1.21 1.478-2.182 3.24-2.92 5.29-.567 1.543-.912 3.046-1.044 4.51-.287.345-.532.654-.86 1.03a16.737 16.737 0 0 1-2.265 2.065c-.84.64-1.78.958-2.82.958-2.15 0-3.68-1.797-4.586-5.39 2.015.034 4.014-.637 5.995-2.014 1.98-1.377 2.972-3.056 2.972-5.037 0-1.982-.572-3.476-1.714-4.483-1.142-1.04-2.787-1.56-4.936-1.56-1.074 0-2.015.15-2.82.452-2.285.84-4.014 2.484-5.19 4.935l.504-4.23a40.924 40.924 0 0 1 1.713-2.518c.57-.806 1.09-1.58 1.56-2.318.472-.772.84-1.544 1.11-2.316.302-.806.436-1.61.402-2.417 0-.84-.27-1.678-.806-2.518-.538-.873-1.04-1.512-1.51-1.915-.47-.437-.925-.654-1.362-.654-.403 0-.772.1-1.108.3-.336.203-.806.74-1.41 1.614-.57.873-1.393 2.62-2.468 5.238-1.04 2.586-2.115 6.448-3.224 11.586a76.54 76.54 0 0 0-1.2 7.166c-.244.16-.544.43-.917.844-3.358 3.492-5.474 5.238-6.347 5.238-.706 0-1.057-1.393-1.057-4.18s.135-4.953.404-6.498c.906-1.545 1.594-2.872 2.064-3.98 0-.906-.537-1.864-1.61-2.87-1.042-1.042-2.15-1.562-3.326-1.562-.604 0-1.142.487-1.612 1.46-.974-.537-2.233-.805-3.778-.805-1.544 0-3.022.217-4.432.654-1.377.436-2.87 1.344-4.483 2.72-3.047 2.643-4.87 6.067-5.47 10.27a11.856 11.856 0 0 1-2.33 2.273c-2.652 1.947-5.49 2.92-8.513 2.92-4.902 0-7.354-3.07-7.354-9.217 0-4.432 1.193-8.68 3.577-12.744 2.787 1.074 5.474 1.612 8.06 1.612 2.62 0 4.7-.605 6.245-1.813 1.545-1.21 2.318-2.706 2.318-4.486 0-1.175-.202-2.165-.605-2.97-1.14-2.15-3.644-3.225-7.506-3.225zm.053 4.986c1.646 0 2.468.654 2.468 1.964 0 1.108-1.007 1.663-3.022 1.663-2.015 0-3.878-.285-5.59-.856 1.846-1.847 3.895-2.77 6.145-2.77zm23.364 12.442c-.672 2.686-1.008 5.91-1.008 9.67-.302 1.075-.688 1.982-1.158 2.72-1.344 2.15-3.04 3.242-5.088 3.275-1.914 0-2.87-1.293-2.87-3.88 0-3.155 1.007-5.774 3.022-7.856 2.015-2.082 4.382-3.392 7.102-3.93zm48.597.957c1.042 0 1.564.42 1.564 1.26-.034.94-.555 1.78-1.563 2.518-.47.335-1.022.688-1.66 1.058-.605.37-1.26.79-1.966 1.26.672-4.064 1.88-6.095 3.627-6.095zm-21.998.956c1.376 0 2.065.606 2.065 1.815 0 .604-.202 1.176-.605 1.713-1.276 1.68-3.66 2.62-7.153 2.82a17.5 17.5 0 0 1 1.21-2.367c1.61-2.652 3.105-3.98 4.482-3.98z" fill="#4d3829"/></svg>