<svg xmlns="http://www.w3.org/2000/svg" width="106.667" height="97.67" viewBox="0 0 99.999996 91.565213"><path style="line-height:normal;text-indent:0;text-align:start;text-decoration-line:none;text-decoration-style:solid;text-decoration-color:#000;text-transform:none;block-progression:tb;isolation:auto;mix-blend-mode:normal" d="M59.602.418c-2.977-.003-6.267.005-9.905.023C21.502.585 14.784.87 13.12 1.72c-1.527.78-3.437 3.376-3.437 4.672 0 .218-.76 1.156-1.686 2.082-1.001 1-1.86 2.376-2.12 3.392-.238.94-.53 18.15-3.308 36.975C-.209 67.665-.217 84.375.195 85.623c.7 2.12 2.456 4.066 4.508 4.998 1.655.752 31.352.69 46.195.793 17.191.12 43.197-.041 44.852-.793.959-.435 2.253-1.397 2.875-2.137 2.366-2.811 1.438-23.839-.957-39.648-2.395-15.81-3.28-36-3.508-36.902-.228-.903-1.085-2.383-1.902-3.288-.818-.904-1.487-1.873-1.487-2.15 0-1.39-1.857-3.97-3.439-4.777C85.875.975 80.435.44 59.602.418zm-3.487 3.418c14.775.07 29.591.822 30.178 1.408.612.612 1.092 5.022 3.025 27.822 2.651 31.257 2.484 32.2 1.409 33.174-1.076.974-22.975.479-40.006.899-17.548.433-39.39-.032-39.746-.164-1.696-.633-2.157-1.533-2.147-4.186.006-1.446 1.044-14.822 2.309-29.725 1.932-22.767 2.416-27.212 3.025-27.822C14.83 4.574 34.68 4 49.828 3.85c2.067-.02 4.177-.024 6.287-.014zM50.357 17.83c-1.475-.05-2.917.017-4.218.23-5.44.893-9.166 3.165-10.98 7.012-.564 1.193-.887 2.344-.753 3.543.134 1.2.67 2.306 1.483 3.614.956 1.537 2.086 2.409 4.662 3.63 1.81.859 4.624 1.863 6.553 2.336 2.77.681 4.592 1.334 5.56 1.926.381.233.601.41.76.582.139.207.162.417.162.71 0 1.742-.618 2.644-1.924 3.232-1.306.587-3.481.686-6.26-.067-3.27-.886-5.075-1.364-6.347-1.58-1.272-.216-2.18-.101-2.936.148a5.19 5.19 0 0 0-.988.461 6.25 6.25 0 0 0-1.934 1.43c-.67.725-1.236 1.539-1.236 2.658 0 1.105.64 1.947 1.402 2.625.763.679 1.742 1.257 2.897 1.784 2.31 1.053 5.328 1.872 8.533 2.224.05.006.094-.003.144.002 9.366.993 17.11-1.551 20.19-7.371 1.957-3.697 1.1-8.768-1.973-11.588-.883-.81-2.15-1.441-4.008-2.178-1.856-.736-4.292-1.533-7.396-2.433-1.795-.521-3.145-.964-4.057-1.323-.79-.31-1.266-.67-1.279-.638a1.37 1.37 0 0 1-.139-.233c-.24-.835.181-1.947 1.092-2.326.379-.157 1.608-.338 2.862-.299 1.253.04 2.604.254 3.427.547 1.414.504 2.831.728 4.123.658 1.28-.068 2.483-.405 3.362-1.267.143-.108.282-.224.412-.354.632-.632 1.256-1.224 1.267-2.275.011-1.05-.618-1.66-1.24-2.283-1.48-1.48-3.952-2.159-6.81-2.666a31.715 31.715 0 0 0-4.413-.47zm.518 2.7c1.62.021 3.23.138 4.453.35 2.528.45 4.142 1.523 4.606 1.839.416.284.274.9.015 1.21-.467.56-1.305.517-2.156.362-.85-.155-1.867-.28-3.1-.613-1.308-.354-2.834-.67-4.345-.717-1.512-.047-2.904.03-4.057.51-2.778 1.156-3.808 4.746-1.9 7.06.02.024.04.038.06.06.03.039.053.079.084.116.592.718 1.242.936 2.258 1.336s2.376.839 4.156 1.355c2.963.86 5.263 1.618 6.936 2.282 1.673.663 2.729 1.276 3.094 1.611 1.917 1.76 2.608 5.805 1.376 8.13-2.292 4.331-8.616 6.726-17.148 5.788-2.844-.313-5.564-1.065-7.482-1.94-.96-.437-1.717-.911-2.164-1.31-.448-.399-.497-.66-.497-.62 0 .05.137-.419.516-.83.116-.125.265-.23.404-.343.194-.119.385-.22.553-.275.582-.193.682-.239 1.752-.057 1.07.182 2.934.664 6.3 1.576 3.245.88 6.06.908 8.245-.074 2.185-.982 3.553-3.153 3.553-5.758 0-1.46-.897-2.844-2.336-3.724-1.44-.881-3.44-1.53-6.315-2.237-.41-.1-.897-.24-1.42-.404-.479-.15-.991-.324-1.502-.504l-.023-.008c-1.07-.382-2.13-.802-2.875-1.156-2.392-1.134-2.685-1.35-3.436-2.555-.704-1.131-.999-1.862-1.062-2.427-.063-.566.053-1.106.498-2.05 1.366-2.895 3.65-4.979 8.453-5.767 1.257-.165 2.887-.239 4.506-.217zM4.721 66.63l.215 5.608c.193 5.038.321 5.754 1.251 7.059.57.799 1.83 1.814 2.803 2.256 1.683.764 10.523.824 41.237.802 29.93-.021 39.551-.038 41.234-.802.972-.442 2.235-1.457 2.805-2.256.907-1.273 1.063-2.064 1.252-6.412l.214-4.961.614 7.117c.826 9.586.186 9.213-.586 11.334 0 0-.558.536-1.326.908-.598.29-1.201.338-3.18.436-2.408.119-4.478.267-13.324.318-9.892.058-19.073.084-28.217.205-16.214.215-42.325-.598-43.268-.67-.726-.108-1.147-.41-1.623-1.199-.931-1.544-1.509-1.956-.699-12.195l.598-7.547zm87.08 3.364c.322.053.315.774.203 3.248-.134 2.946-.316 3.664-1.139 4.487l-.98.978s-15.767-.106-39.131.106c-22.601.205-40.685.174-41.813-2.055-.565-1.117-.723-4.28-.293-5.885.216-.803.412-.878 1.403-.533.747.26 24.705.451 40.804.285 15.72-.162 39.958-.238 40.504-.502.19-.091.334-.146.442-.129z" color="#000" font-weight="400" font-family="sans-serif" white-space="normal" overflow="visible" fill="#fe9cc1" stroke-width="2.656"/></svg>