<svg xmlns="http://www.w3.org/2000/svg" width="106.667" height="97.67" viewBox="0 0 99.999996 91.565213"><path style="line-height:normal;text-indent:0;text-align:start;text-decoration-line:none;text-decoration-style:solid;text-decoration-color:#000;text-transform:none;block-progression:tb;isolation:auto;mix-blend-mode:normal" d="M59.602.418c-2.977-.003-6.267.005-9.905.023C21.502.586 14.784.87 13.12 1.72 11.59 2.497 9.68 5.094 9.68 6.39c0 .22-.76 1.157-1.686 2.083-1 1-1.86 2.376-2.12 3.392-.238.94-.53 18.15-3.308 36.975C-.21 67.665-.217 84.375.195 85.623c.7 2.12 2.456 4.066 4.508 4.998 1.655.753 31.352.69 46.195.794 17.19.12 43.197-.04 44.852-.793.96-.434 2.253-1.396 2.875-2.136 2.366-2.81 1.438-23.84-.957-39.648-2.395-15.81-3.28-36-3.508-36.902-.228-.903-1.085-2.383-1.902-3.288-.818-.904-1.487-1.873-1.487-2.15 0-1.39-1.856-3.97-3.438-4.777C85.875.974 80.435.44 59.602.417zm-3.487 3.418c14.775.07 29.59.822 30.178 1.408.612.612 1.092 5.022 3.025 27.822 2.65 31.257 2.484 32.2 1.41 33.174-1.077.974-22.976.48-40.007.9-17.547.432-39.39-.033-39.745-.165-1.696-.633-2.157-1.533-2.147-4.186.006-1.447 1.044-14.823 2.31-29.726 1.93-22.767 2.415-27.212 3.024-27.822C14.83 4.574 34.68 4 49.828 3.85c2.067-.02 4.177-.024 6.287-.014zM50.357 17.83c-1.475-.05-2.917.017-4.218.23-5.44.893-9.167 3.165-10.982 7.012-.563 1.193-.886 2.344-.752 3.543.134 1.2.67 2.306 1.483 3.614.955 1.536 2.085 2.408 4.66 3.63 1.81.858 4.625 1.862 6.554 2.335 2.77.68 4.592 1.334 5.56 1.926.38.234.6.412.76.583.14.207.162.417.162.71 0 1.742-.618 2.644-1.924 3.232-1.306.587-3.48.686-6.26-.067-3.27-.886-5.075-1.364-6.347-1.58-1.272-.216-2.18-.1-2.936.148a5.19 5.19 0 0 0-.99.46 6.25 6.25 0 0 0-1.933 1.43c-.67.726-1.236 1.54-1.236 2.66 0 1.104.64 1.946 1.403 2.624.763.68 1.742 1.257 2.897 1.784 2.31 1.053 5.328 1.872 8.533 2.224.05.006.094-.003.144.002 9.366.993 17.11-1.55 20.19-7.37 1.957-3.698 1.1-8.77-1.973-11.59-.883-.81-2.15-1.44-4.008-2.177-1.856-.736-4.292-1.533-7.396-2.433-1.795-.52-3.145-.964-4.057-1.323-.79-.31-1.266-.67-1.28-.638a1.37 1.37 0 0 1-.138-.234c-.24-.835.18-1.947 1.092-2.326.38-.157 1.608-.338 2.862-.3 1.252.04 2.603.255 3.426.548 1.414.504 2.83.728 4.123.658 1.28-.068 2.482-.405 3.36-1.267.144-.11.283-.225.413-.355.632-.632 1.256-1.224 1.267-2.275.01-1.05-.618-1.66-1.24-2.283-1.48-1.48-3.952-2.16-6.81-2.666a31.715 31.715 0 0 0-4.413-.47zm.518 2.7c1.62.02 3.23.138 4.453.35 2.528.45 4.142 1.523 4.606 1.84.416.283.274.9.015 1.21-.468.56-1.306.516-2.157.36-.85-.154-1.867-.28-3.1-.612-1.308-.354-2.834-.67-4.345-.717-1.512-.046-2.904.03-4.057.51-2.777 1.157-3.807 4.747-1.9 7.06.02.025.04.04.06.062.03.038.054.078.085.115.592.718 1.242.936 2.258 1.336s2.376.84 4.156 1.355c2.962.86 5.262 1.618 6.935 2.282 1.673.663 2.73 1.276 3.094 1.61 1.916 1.76 2.607 5.806 1.375 8.132-2.292 4.33-8.616 6.725-17.148 5.787-2.844-.314-5.564-1.066-7.482-1.94-.96-.438-1.717-.912-2.164-1.31-.447-.4-.496-.66-.496-.62 0 .05.137-.42.516-.83.116-.126.265-.23.404-.344.194-.12.385-.22.553-.275.582-.192.682-.238 1.752-.056 1.07.182 2.933.664 6.3 1.576 3.244.88 6.06.908 8.244-.074 2.185-.982 3.553-3.153 3.553-5.758 0-1.46-.897-2.844-2.336-3.724-1.44-.88-3.438-1.53-6.314-2.237-.41-.1-.897-.24-1.42-.404-.48-.15-.99-.324-1.502-.504l-.023-.01c-1.07-.38-2.128-.8-2.874-1.155-2.392-1.134-2.685-1.35-3.436-2.555-.704-1.13-1-1.862-1.062-2.427-.063-.566.053-1.106.498-2.05 1.366-2.895 3.65-4.98 8.453-5.767 1.256-.165 2.886-.24 4.505-.217zM4.72 66.63l.216 5.608c.193 5.038.32 5.754 1.25 7.06.57.798 1.832 1.813 2.804 2.255 1.683.764 10.523.824 41.237.802 29.93-.02 39.55-.038 41.234-.802.973-.442 2.236-1.457 2.806-2.256.907-1.273 1.063-2.064 1.252-6.412l.214-4.96.614 7.116c.826 9.587.186 9.214-.586 11.335 0 0-.558.536-1.326.908-.598.29-1.2.338-3.18.436-2.408.118-4.478.266-13.324.317-9.892.058-19.073.084-28.217.205-16.214.215-42.325-.598-43.268-.67-.726-.108-1.147-.41-1.623-1.2-.93-1.543-1.51-1.955-.7-12.194l.6-7.547zm87.08 3.364c.323.053.316.774.204 3.248-.134 2.946-.316 3.664-1.14 4.487l-.98.977s-15.766-.106-39.13.106c-22.6.205-40.685.174-41.813-2.055-.564-1.117-.722-4.28-.292-5.885.216-.803.412-.878 1.403-.533.748.26 24.706.45 40.805.285 15.72-.162 39.958-.238 40.504-.502.188-.09.333-.146.44-.13z" color="#000" font-weight="400" font-family="sans-serif" white-space="normal" overflow="visible" fill="#fe9cc1" stroke-width="2.656"/></svg>