<svg xmlns="http://www.w3.org/2000/svg" viewBox="0 0 99.999996 98.382805" height="104.942" width="106.667"><g fill="none" stroke="#fe9cc1" stroke-width="3.8"><path d="M73.485 2.112c-3.746 1.185-8.9 7.724-8.9 7.724L55.25 20.02l-9.19 11.484s-5.1 7.318-9.044 7.724c-2.517.26-6.656-3.65-6.656-3.65l-6.223-4.809-6.222-4.807s-3.63-4.418-6.223-4.808c-1.584.197-3.254 1.354-5.016 2.444-1.762 1.089-3.617 2.11-4.036 3.265-.754 3.03-.579 13.746-.579 13.746l-.144 11.577V62.75s-.231 6.737.867 9.841c.904 1.52 2.668 2.479 4.45 3.797 1.78 1.318 3.58 2.995 5.47 2.581 2.08-.54 5.21-3.796 5.21-3.796l6.223-4.807 6.223-4.808s4.413-3.53 6.945-3.217c4.154.512 9.768 7.887 9.768 7.887l8.177 9.19 9.334 9.334s5.78 6.548 9.768 7.599c3.478-.223 7.631-2.582 11.916-4.474 4.285-1.892 8.702-3.316 10.253-6.577 2.176-5.01 1.157-16.347 1.157-16.347V31.05s1.56-12.94-1.301-18.372c-2.507-2.156-6.235-3.876-10.486-6.207-4.252-2.332-9.028-5.277-12.406-4.36z" stroke-width="3.7930839999999995"/><path d="M15.729 65.564c-2.176-.798-1.307-6.83-1.307-6.83V49.78l-.327-7.484s-1.468-5.603.49-6.666c1.227-.667 3.671 2.015 3.671 2.015l3.834 4.793 3.835 4.793s2.649 3.106 2.527 4.956c-.097 1.483-2.527 3.671-2.527 3.671l-3.835 3.835-3.834 3.834s-1.511 2.41-2.527 2.037zM47.357 50.192c0 2.958 5.408 7.034 5.408 7.034l8.206 7.033 8.206 7.034s4.43 5.66 8.007 5.236c1.049-.125.081-12.202.2-12.27V50.192s.653-9.186.73-13.61c.077-4.426 1.459-9.01-1.73-10.729-2.318-1.25-7.207 3.238-7.207 3.238l-8.206 7.034-8.206 7.033s-5.408 4.076-5.408 7.034z" stroke-width="3.7930839999999995"/></g></svg>