<svg xmlns="http://www.w3.org/2000/svg" id="Layer_1" viewBox="0 0 120 120"><style id="style3">.st0{fill:#414042}.st1{fill:#769cd2}.st2{fill:#26b8b0}.st3{fill:#9c82bc}.st4{fill:#676767}</style><circle id="path4141" cx="60" cy="60" r="54.73" fill="#fe9cad" stroke-width="3" stroke-linecap="round" stroke-linejoin="round"/><path id="path4146" d="M59.327 98.307c-.164-.053-8.294-3.398-18.066-7.434-16.556-6.84-17.796-7.37-18.218-7.788-.85-.845-.79.58-.79-19.304V46.068l.258-.306c.142-.167.568-.434.946-.593.38-.16 6.578-2.708 13.778-5.664l13.448-5.524.36-.15-.228.296c-1.658 2.15-2.536 4.022-2.994 6.388-.25 1.28-.654 6 2.702 8.163 3.356 2.162 6.043 2.443 10.785 2.46 4.743.014 8.935-.685 11.824-3.365 1.127-1.066 1.86-2.497 1.873-4.82.013-2.378-.326-4.028-1.428-6.243-.322-.646-.525-1.15-.45-1.123 1.06.412 23.504 9.683 23.794 9.83.22.11.49.36.594.554.18.33.194 1.346.22 17.923.033 19.752.09 18.342-.764 19.19-.424.422-1.65.945-18.355 7.845-18.48 7.633-18.49 7.636-19.288 7.38zm16.987-12.254l16.037-6.62v-2.748c0-2.567-.01-2.746-.188-2.696-.104.028-7.224 2.963-15.82 6.523-15.195 6.29-15.653 6.47-16.336 6.47-.684 0-1.145-.182-16.336-6.47-8.597-3.56-15.717-6.495-15.82-6.524-.177-.05-.19.128-.19 2.695v2.748l16.146 6.673c8.88 3.67 16.218 6.65 16.308 6.62.09-.03 7.38-3.033 16.2-6.673zm0-11.36l16.037-6.618v-2.75c0-2.565-.01-2.745-.188-2.695-.104.03-7.224 2.965-15.82 6.524-15.195 6.29-15.653 6.47-16.336 6.47-.684 0-1.145-.182-16.336-6.47-8.597-3.56-15.717-6.495-15.82-6.524-.177-.05-.19.13-.19 2.696v2.75l16.146 6.672c8.88 3.67 16.218 6.648 16.308 6.62.09-.03 7.38-3.034 16.2-6.674zm0-11.358l16.037-6.62v-2.974l-.783.59c-1.68 1.266-3.186 1.785-6.723 2.318-2.35.355-3.574 1.208-5.267 2.03-1.996.966-3.618 2.698-5.725 3.39-1.99.655-4.23.09-6.253.63-2.477.664-4.45 3.102-7.01 3.158-2.77.06-5.063-2.292-7.717-3.08-2.458-.73-5.175-.528-7.542-1.513-2.097-.873-3.563-2.924-5.662-3.796-2.74-1.14-6.21-.022-8.727-1.745-1.414-.964-2.337-2.203-3.226-3.995l-.03 2.477c-.015 1.362-.015 2.49 0 2.505.166.156 32.31 13.336 32.43 13.296.09-.03 7.38-3.033 16.2-6.673zM49.326 42.438c.082-2.143.517-3.68 1.55-5.474 1.836-3.193 5.1-5.43 8.682-5.955.854-.126 3.085-.09 4.182.068.42.06.443.048.63-.353.11-.228.552-.95.987-1.604 2.887-4.35 6.735-6.848 11.495-7.464.532-.07.573-.057.69.198.07.15.093.436.055.64l-.07.367-1.052.124c-3.285.386-6.528 2.172-8.853 4.876-1.643 1.91-3.356 4.972-4.226 7.553-.358 1.064-.393 1.248-.253 1.34.09.057.277.092.418.076.226-.025.315-.19.71-1.327.475-1.355 1.276-3.25 1.512-3.573.127-.174.21-.15 1.124.322 3.06 1.58 5.202 4.245 6.14 7.637.217.786.296 1.374.342 2.548-.003 6.368-8.37 7.14-12.376 7.22-6.598-.286-11.828-1.22-11.686-7.22zm17.468-3.117c.21-.174.16-.497-.108-.67-.134-.087-.682-.235-1.217-.33-2.226-.395-2.827-.59-3.767-1.225-.487-.33-1.07-.762-1.292-.96-.622-.555-1.162-.45-1.162.223 0 .253.137.457.622.928.998.968 3.043 1.91 4.713 2.17.67.105 2.02.023 2.21-.135z" fill="#4d3829"/></svg>