<?xml version="1.0" encoding="UTF-8" standalone="no"?>
<!-- Generator: Adobe Illustrator 19.1.0, SVG Export Plug-In . SVG Version: 6.00 Build 0)  -->

<svg
   xmlns:dc="http://purl.org/dc/elements/1.1/"
   xmlns:cc="http://creativecommons.org/ns#"
   xmlns:rdf="http://www.w3.org/1999/02/22-rdf-syntax-ns#"
   xmlns:svg="http://www.w3.org/2000/svg"
   xmlns="http://www.w3.org/2000/svg"
   xmlns:sodipodi="http://sodipodi.sourceforge.net/DTD/sodipodi-0.dtd"
   xmlns:inkscape="http://www.inkscape.org/namespaces/inkscape"
   version="1.1"
   id="Layer_1"
   x="0px"
   y="0px"
   viewBox="0 0 120 120"
   style="enable-background:new 0 0 120 120;"
   xml:space="preserve"
   inkscape:version="0.91 r13725"
   sodipodi:docname="icon.svg"><metadata
     id="metadata23"><rdf:RDF><cc:Work
         rdf:about=""><dc:format>image/svg+xml</dc:format><dc:type
           rdf:resource="http://purl.org/dc/dcmitype/StillImage" /><dc:title /></cc:Work></rdf:RDF></metadata><defs
     id="defs21" /><sodipodi:namedview
     pagecolor="#ffffff"
     bordercolor="#666666"
     borderopacity="1"
     objecttolerance="10"
     gridtolerance="10"
     guidetolerance="10"
     inkscape:pageopacity="0"
     inkscape:pageshadow="2"
     inkscape:window-width="1920"
     inkscape:window-height="1027"
     id="namedview19"
     showgrid="false"
     inkscape:zoom="0.71258446"
     inkscape:cx="6.5975397"
     inkscape:cy="61.841881"
     inkscape:window-x="-8"
     inkscape:window-y="-8"
     inkscape:window-maximized="1"
     inkscape:current-layer="Layer_1" /><style
     type="text/css"
     id="style3">
	.st0{fill:#414042;}
	.st1{fill:#769CD2;}
	.st2{fill:#26B8B0;}
	.st3{fill:#9C82BC;}
	.st4{fill:#676767;}
</style><circle
     style="opacity:1;fill:#fe9cad;fill-opacity:1;stroke:none;stroke-width:3;stroke-linecap:round;stroke-linejoin:round;stroke-miterlimit:4;stroke-dasharray:none;stroke-opacity:1"
     id="path4141"
     cx="60"
     cy="60"
     r="54.73035" /><path
     inkscape:connector-curvature="0"
     id="path4146"
     d="M 59.327303,98.306964 C 59.162506,98.253915 51.032835,94.90858 41.261361,90.87282 24.704224,84.034482 23.464247,83.504449 23.042452,83.085135 22.192536,82.240219 22.250986,83.665793 22.250986,63.780646 l 0,-17.713471 0.258661,-0.30579 c 0.142263,-0.168185 0.56822,-0.435686 0.946567,-0.594448 0.378352,-0.158761 6.578268,-2.707635 13.777598,-5.664172 7.19933,-2.956531 13.251141,-5.442094 13.448471,-5.523464 l 0.35877,-0.147949 -0.227453,0.294977 c -1.65766,2.149759 -2.535155,4.021908 -2.993843,6.387392 -0.248299,1.280494 -0.653796,6.000889 2.702074,8.162892 3.355871,2.162003 6.043381,2.443228 10.785549,2.458892 4.742168,0.01567 8.934949,-0.683753 11.823139,-3.363884 1.126523,-1.065421 1.859796,-2.497059 1.872627,-4.818765 0.01314,-2.378944 -0.325693,-4.028598 -1.428381,-6.243653 -0.321395,-0.645612 -0.524284,-1.150529 -0.450865,-1.122049 1.06214,0.412054 23.505067,9.682469 23.795482,9.829117 0.221901,0.112038 0.489636,0.361447 0.594987,0.554234 0.180705,0.330685 0.19318,1.345036 0.220504,17.92244 0.03255,19.752282 0.08873,18.342286 -0.764593,19.190274 -0.424022,0.421357 -1.649042,0.94493 -18.355596,7.845081 -18.481135,7.633093 -18.48823,7.635809 -19.287508,7.378664 z m 16.98628,-12.254219 16.037576,-6.618931 0,-2.749104 c 0,-2.566248 -0.01256,-2.745589 -0.189316,-2.696175 -0.104119,0.02913 -7.223667,2.964964 -15.821215,6.524121 -15.193211,6.28958 -15.651645,6.471192 -16.335071,6.471141 -0.683331,-5e-5 -1.144126,-0.182589 -16.335079,-6.470957 -8.597548,-3.558998 -15.717094,-6.49483 -15.821219,-6.524077 -0.17672,-0.04962 -0.18931,0.129604 -0.18931,2.695782 l 0,2.748939 16.145755,6.672876 c 8.880172,3.670079 16.218782,6.648674 16.308027,6.61909 0.08925,-0.02957 7.379184,-3.032297 16.199852,-6.672705 z m 0,-11.358828 16.037576,-6.618926 0,-2.74911 c 0,-2.566242 -0.01256,-2.745589 -0.189316,-2.696176 -0.104119,0.02913 -7.223667,2.964971 -15.821215,6.524128 -15.193211,6.28958 -15.651645,6.471186 -16.335071,6.471135 -0.683331,-5e-5 -1.144126,-0.182589 -16.335079,-6.470957 -8.597548,-3.558999 -15.717094,-6.49483 -15.821219,-6.524071 -0.17672,-0.04962 -0.18931,0.129604 -0.18931,2.695776 l 0,2.748945 16.145755,6.672876 c 8.880172,3.67008 16.218782,6.648667 16.308027,6.61909 0.08925,-0.02957 7.379184,-3.032297 16.199852,-6.67271 z m 0,-11.358824 16.037576,-6.618931 0,-1.487058 0,-1.487063 -0.784296,0.59083 c -1.679006,1.264839 -3.185513,1.784179 -6.722711,2.31755 -2.350864,0.35448 -3.573769,1.207969 -5.266727,2.028389 -1.996216,0.967382 -3.617975,2.699471 -5.72528,3.392269 -1.990288,0.654328 -4.229904,0.08763 -6.253632,0.629774 -2.475328,0.663125 -4.447825,3.101226 -7.009836,3.156742 -2.768697,0.05999 -5.061385,-2.291223 -7.716008,-3.08006 -2.457632,-0.7303 -5.174214,-0.527478 -7.541415,-1.512187 -2.098365,-0.872879 -3.564736,-2.924072 -5.663405,-3.796225 -2.739408,-1.13843 -6.211066,-0.02105 -8.727145,-1.743669 -1.414374,-0.964513 -2.337653,-2.203662 -3.226671,-3.995642 l -0.02913,2.477035 c -0.01599,1.362371 -0.01599,2.489497 0,2.50472 0.164765,0.156662 32.308687,13.335961 32.428811,13.296111 0.08925,-0.02963 7.379184,-3.032355 16.199851,-6.672762 z M 49.325711,42.437797 c 0.08239,-2.142556 0.517545,-3.679541 1.549905,-5.47428 1.836378,-3.192525 5.099385,-5.430316 8.681989,-5.954162 0.853934,-0.124863 3.085601,-0.08839 4.182833,0.06836 0.420335,0.06003 0.442183,0.04785 0.630801,-0.352513 0.107458,-0.228094 0.550866,-0.950203 0.985352,-1.604687 2.887776,-4.350009 6.735488,-6.848581 11.495718,-7.464914 0.531923,-0.06887 0.573183,-0.05698 0.689714,0.198771 0.06866,0.150696 0.09322,0.435787 0.05508,0.63919 l -0.06888,0.367159 -1.053656,0.123626 c -3.284201,0.38532 -6.527789,2.171587 -8.852681,4.875231 -1.642493,1.910078 -3.355913,4.972815 -4.225748,7.553538 -0.358561,1.063822 -0.393354,1.24763 -0.253363,1.338658 0.08925,0.05806 0.277648,0.09291 0.418661,0.07749 0.224261,-0.02449 0.313233,-0.190737 0.709849,-1.32617 0.47348,-1.355493 1.274421,-3.249788 1.510676,-3.572883 0.127261,-0.174048 0.211024,-0.1501 1.123864,0.321369 3.059971,1.580408 5.202558,4.245724 6.139912,7.637864 0.217389,0.786695 0.296455,1.3746 0.342702,2.548348 -0.0034,6.368575 -8.370882,7.140394 -12.376639,7.221547 -6.59766,-0.286964 -11.828189,-1.219961 -11.686087,-7.221547 z m 17.468092,-3.11679 c 0.21124,-0.175299 0.159231,-0.497911 -0.10818,-0.671039 -0.133868,-0.08667 -0.681529,-0.235272 -1.217012,-0.330228 -2.224986,-0.394553 -2.825982,-0.590094 -3.76569,-1.225179 -0.487313,-0.329345 -1.068714,-0.761306 -1.292004,-0.959912 -0.623352,-0.554437 -1.162617,-0.450927 -1.162617,0.223164 0,0.253134 0.137008,0.457546 0.622031,0.928038 0.997789,0.967907 3.042597,1.909677 4.712827,2.170572 0.670722,0.104766 2.020879,0.02208 2.210645,-0.135416 z"
     style="fill:#4d3829;fill-opacity:1" /></svg>