<?xml version="1.0" encoding="UTF-8" standalone="no"?>
<svg
   xmlns:dc="http://purl.org/dc/elements/1.1/"
   xmlns:cc="http://creativecommons.org/ns#"
   xmlns:rdf="http://www.w3.org/1999/02/22-rdf-syntax-ns#"
   xmlns:svg="http://www.w3.org/2000/svg"
   xmlns="http://www.w3.org/2000/svg"
   version="1.1"
   id="svg2"
   viewBox="0 0 100 91.376351"
   height="25.788437mm"
   width="28.222223mm">
  <defs
     id="defs4" />
  <metadata
     id="metadata7">
    <rdf:RDF>
      <cc:Work
         rdf:about="">
        <dc:format>image/svg+xml</dc:format>
        <dc:type
           rdf:resource="http://purl.org/dc/dcmitype/StillImage" />
        <dc:title></dc:title>
      </cc:Work>
    </rdf:RDF>
  </metadata>
  <g
     transform="translate(961.57634,-400.3717)"
     id="layer1">
    <g
       transform="translate(-76.554184,11.201962)"
       id="layer1-2">
      <path
         id="path4147"
         d="m -822.68589,479.03589 c -9.40451,-4.65934 -20.04956,-17.26573 -29.10623,-34.46908 0,0 -2.02386,-6.62622 -3.22991,-6.55283 -1.20605,0.0734 -2.94049,4.0412 -2.94049,4.0412 -3.95016,8.81558 -6.17345,17.89826 -5.83731,23.84699 0.37463,6.63001 2.71949,7.74002 7.32336,7.74002 3.00691,0 4.15354,-0.0594 10.09959,-3.54794 2.18138,-1.27982 2.61658,-1.32551 3.23739,-0.33983 1.04253,1.65525 -1.07219,3.69368 -6.52846,6.29296 -8.28771,3.94814 -14.42648,2.39356 -16.98307,-4.30077 -2.56244,-6.70965 -1.00733,-17.34494 5.42705,-31.10059 0,0 2.66783,-4.99774 2.92976,-7.74572 0.20211,-2.12041 -1.09085,-6.29628 -1.09085,-6.29628 -1.01565,-3.3896 -1.24527,-5.11872 -2.53698,-5.76665 -1.22103,-0.61248 -2.84136,0.15508 -5.14433,0.83838 -8.97036,2.6615 -13.83926,6.04947 -13.83926,9.99633 0,2.22458 2.45704,6.83856 6.36046,9.30268 2.84541,1.79624 3.66338,4.00525 1.72234,4.65139 -1.34232,0.44683 -7.73627,-4.04698 -10.02193,-7.04363 -2.56622,-3.36449 -2.90453,-8.19 -0.79944,-11.40277 2.0986,-3.20286 7.87239,-6.60981 14.9318,-8.81082 0,0 4.19234,-1.11617 5.66813,-2.00287 0.90763,-0.54533 0.20403,-3.17002 0.20403,-3.17002 -0.81987,-4.71051 -0.56902,-14.40631 0.44101,-17.0465 2.03906,-5.32997 6.94295,-8.00763 12.11477,-6.615 4.47434,1.20481 10.25296,5.14074 10.25296,6.98348 0,2.08469 -1.64614,1.96472 -5.08769,-0.37078 -3.83438,-2.60208 -8.566,-3.60727 -10.17097,-2.59487 -3.39901,2.14403 -4.39988,4.43244 -4.39388,11.32651 0.003,3.67894 0.26719,7.63184 0.58665,8.78421 0,0 0.67316,1.30785 1.29216,1.60621 1.69364,0.81634 5.64027,0.028 5.64027,0.028 5.96579,-0.43301 6.46358,-0.6071 8.19548,-2.86615 1.01414,-1.32283 4.71959,-5.41238 8.46512,-9.08789 13.63222,-13.37742 25.77327,-16.04458 30.56494,-6.7785 1.47618,2.85462 1.54499,12.9995 0.10155,14.97352 -1.88244,2.57439 -3.06184,0.6767 -2.56318,-4.12424 0.51826,-4.98956 -0.36852,-9.78417 -2.13665,-11.5523 -1.95975,-1.95975 -6.78612,-0.42461 -12.23682,2.47946 -5.12277,2.72936 -18.25698,13.75421 -18.25698,15.62701 0,0.81102 1.324,1.06875 5.4902,1.06875 11.85277,0 29.02523,3.72598 37.94337,8.23273 5.14189,2.59842 10.35611,7.58718 11.22709,10.74162 1.02261,3.70355 -0.22816,7.43676 -3.43489,10.25231 -3.44017,3.02051 -8.65519,5.69484 -10.0565,5.15711 -2.14016,-0.82126 -1.01181,-2.78561 2.67253,-4.65261 4.03749,-2.04595 6.49089,-4.97736 6.48266,-7.06775 -0.003,-0.70948 0.70437,-3.16268 -0.0441,-4.29757 -5.14541,-7.80185 -22.70553,-13.59158 -45.40659,-14.97097 0,0 -5.61556,-1.13818 -8.17269,0.14324 -2.55714,1.28143 -5.12561,6.46197 -5.12561,6.46197 -2.57457,3.92085 -3.39248,4.88691 -3.43623,7.696 -0.0554,3.55835 1.96741,5.73532 4.04708,9.87955 8.28132,16.50244 18.00361,28.71976 26.71156,32.98017 5.03891,2.4653 7.26465,2.14091 9.93273,-1.44761 1.40517,-1.88993 1.60746,-3.17082 1.52184,-9.63645 -0.11387,-8.59857 -1.77906,-15.64839 -6.44068,-27.26756 -3.49668,-8.7155 -3.69083,-9.86952 -1.66048,-9.86952 1.01064,0 3.18285,1.74424 4.63805,4.98686 9.36093,20.85892 9.85238,40.97227 2.59749,46.67896 -2.55793,2.01206 -8.07827,2.01134 -12.14121,-10e-4 z m -28.87979,-55.52372 c 1.37801,-2.10748 2.48664,-3.00324 1.30512,-4.13727 -1.34074,-1.28687 -5.33381,-0.0859 -6.30189,0.55124 -0.92985,0.61201 -0.1608,6.57213 1.71414,7.43165 1.11662,0.51189 1.90461,-1.73815 3.28263,-3.84562 z m 13.07601,15.42322 c -1.96857,-1.96858 -2.03944,-6.24896 -0.13202,-7.97514 1.90525,-1.72424 7.06065,-1.45958 8.67366,0.32278 3.08517,3.40907 -0.10479,9.19419 -4.68706,9.19419 -1.28485,0 -2.99801,-0.68526 -3.85458,-1.54183 z"
         style="fill:#fe9cad" />
    </g>
  </g>
</svg>
