<?xml version="1.0" encoding="UTF-8" standalone="no"?>
<svg
   xmlns:dc="http://purl.org/dc/elements/1.1/"
   xmlns:cc="http://creativecommons.org/ns#"
   xmlns:rdf="http://www.w3.org/1999/02/22-rdf-syntax-ns#"
   xmlns:svg="http://www.w3.org/2000/svg"
   xmlns="http://www.w3.org/2000/svg"
   version="1.1"
   id="svg2"
   viewBox="0 0 99.999996 91.510403"
   height="25.826269mm"
   width="28.222221mm">
  <defs
     id="defs4" />
  <metadata
     id="metadata7">
    <rdf:RDF>
      <cc:Work
         rdf:about="">
        <dc:format>image/svg+xml</dc:format>
        <dc:type
           rdf:resource="http://purl.org/dc/dcmitype/StillImage" />
        <dc:title></dc:title>
      </cc:Work>
    </rdf:RDF>
  </metadata>
  <g
     transform="translate(961.57633,-400.30468)"
     id="layer1">
    <path
       id="path4160"
       d="m -937.76972,402.20669 c -12.94429,-0.11248 -18.56026,3.46025 -20.93925,13.13216 -1.9263,19.6909 -0.38667,39.80296 -0.30384,59.64322 1.72581,10.53024 13.0048,16.38545 23.01285,14.62177 19.41966,-0.24187 38.92635,0.618 58.29568,-0.40249 10.33288,-1.97955 15.61863,-13.03446 13.91346,-22.75046 -0.0622,-16.8736 0.84437,-33.90071 -0.36106,-50.68193 -2.36467,-10.30195 -10.05412,-13.74072 -23.6225,-13.46165 -15.76899,-0.0147 -31.53717,-0.0498 -47.30617,-0.0296 -0.92929,-0.0395 -1.82622,-0.0635 -2.68917,-0.071 z m 46.65706,7.44208 c 4.07391,0.0125 8.12593,0.1957 12.11804,0.82471 7.04214,2.29394 8.90833,10.42262 7.88799,16.96566 -0.23842,15.36174 0.51993,30.88833 -0.43011,46.14605 -1.99105,7.22669 -9.20544,8.80655 -17.07813,8.61207 -18.21689,-0.37315 -36.56407,0.73497 -54.71865,-0.43405 -7.67717,-2.14806 -8.46842,-9.64087 -8.52526,-18.08829 0.23191,-14.92136 -0.50721,-29.92575 0.29398,-44.8064 1.62295,-7.50591 7.16154,-8.84865 16.87096,-9.06388 7.7331,-0.0556 15.46703,-0.0528 23.20028,-0.0612 6.73999,0.33747 13.59105,-0.11562 20.3809,-0.0947 z m -42.45856,11.29138 c -3.7474,-0.0415 -6.94018,0.0919 -7.56243,0.62346 -1.65935,1.41755 -0.75565,24.35053 -0.75565,24.35053 0,0 -0.27248,22.35372 1.16011,24.35053 0.71628,0.99839 6.55899,0.99735 12.22261,0.74776 5.66363,-0.2496 10.44041,0.18822 11.14735,-0.74776 0.70695,-0.93598 1.56588,-6.19264 -0.22294,-8.04779 -1.62835,-1.68872 -8.71198,-0.47843 -12.23249,-1.35149 -4.16563,0.068 -2.29214,-10.21407 -2.39323,-16.47834 -0.10108,-6.26426 -2.44915,-15.1649 4.30505,-15.10514 4.57136,0.14963 7.63741,0.76239 10.09969,-0.11049 1.2065,-0.4277 1.5987,-1.72824 1.26665,-3.37182 -0.33205,-1.64357 0.76624,-3.91106 -2.12687,-4.5714 -0.87468,-0.19962 -5.85931,-0.0182 -11.05067,-0.19532 -1.29784,-0.0444 -2.60805,-0.0789 -3.85718,-0.0927 z m 30.0485,0.13613 c -1.25511,0.007 -2.07944,0.0897 -2.27287,0.35316 -0.9913,1.35014 -0.51101,4.00121 -0.51101,4.00121 0.77814,3.22489 2.19614,3.94053 5.1416,3.83942 2.94547,-0.10111 6.92565,-0.056 9.23947,0.70633 2.51945,4.35423 0.38448,13.36344 1.09106,19.53054 -0.0914,6.78224 3.52904,13.60276 -6.86795,12.23248 -6.43632,-0.13525 -7.71067,1.67346 -8.30033,4.4392 -0.64153,3.00906 0.50902,5.10649 3.52966,5.36257 0,0 18.09946,1.31827 20.04943,-1.27652 1.94998,-2.5948 1.56199,-47.46149 0,-48.70106 -0.64348,-0.51067 -6.48698,-0.51043 -12.16934,-0.38276 -3.55147,0.0798 -6.83786,-0.11687 -8.92972,-0.10457 z"
       style="fill:none;fill-opacity:1;stroke:#fe9cad;stroke-width:3.79874229;stroke-miterlimit:4;stroke-dasharray:none;stroke-opacity:1" />
  </g>
</svg>
