<?xml version="1.0" encoding="UTF-8" standalone="no"?>
<svg
   xmlns:dc="http://purl.org/dc/elements/1.1/"
   xmlns:cc="http://creativecommons.org/ns#"
   xmlns:rdf="http://www.w3.org/1999/02/22-rdf-syntax-ns#"
   xmlns:svg="http://www.w3.org/2000/svg"
   xmlns="http://www.w3.org/2000/svg"
   xml:space="preserve"
   style="enable-background:new 0 0 120 120;"
   viewBox="0 0 120 120"
   y="0px"
   x="0px"
   id="Layer_1"
   version="1.1"><metadata
     id="metadata23"><rdf:RDF><cc:Work
         rdf:about=""><dc:format>image/svg+xml</dc:format><dc:type
           rdf:resource="http://purl.org/dc/dcmitype/StillImage" /><dc:title></dc:title></cc:Work></rdf:RDF></metadata><defs
     id="defs21" /><style
     id="style3"
     type="text/css">
	.st0{fill:#414042;}
	.st1{fill:#769CD2;}
	.st2{fill:#26B8B0;}
	.st3{fill:#9C82BC;}
	.st4{fill:#676767;}
</style><path
     id="path4146"
     d="M 58.93991,120.36734 C 58.68021,120.28374 45.86879,115.01188 30.47008,108.65199 4.3779398,97.87556 2.4238798,97.04029 1.7591798,96.3795 0.41980976,95.04801 0.51191976,97.29455 0.51191976,65.95786 l 0,-27.91438 0.40762,-0.48189 C 1.1437298,37.29655 1.8149898,36.875 2.4112198,36.62481 3.0074598,36.37462 12.77782,32.35789 24.12313,27.69873 35.46844,23.03958 45.00539,19.12262 45.31636,18.99439 l 0.56538,-0.23315 -0.35844,0.46485 c -2.61228,3.38777 -3.99511,6.33806 -4.71795,10.06579 -0.39129,2.01791 -1.030307,9.456706 4.258156,12.863772 5.288464,3.407066 9.523668,3.850244 16.996776,3.87493 7.473108,0.02469 14.080446,-1.077517 18.631898,-5.301092 1.77527,-1.67898 2.930824,-3.935076 2.951044,-7.593816 0.0207,-3.74894 -0.513254,-6.348604 -2.250964,-9.839274 -0.50648,-1.01741 -0.82621,-1.8131 -0.71051,-1.76822 1.67381,0.64935 37.04126,15.25845 37.49892,15.48955 0.34969,0.17656 0.77161,0.5696 0.93763,0.87341 0.28477,0.52112 0.30443,2.11962 0.34749,28.24369 0.0513,31.12731 0.13982,28.90532 -1.20491,30.24165 -0.66821,0.66401 -2.5987,1.4891 -28.92629,12.36294 -29.12413,12.02887 -29.13531,12.03315 -30.39488,11.62792 z m 26.76841,-19.31123 25.27336,-10.43067 0,-4.33227 c 0,-4.04411 -0.0198,-4.32673 -0.29834,-4.24886 -0.16408,0.0459 -11.38366,4.67244 -24.9324,10.28126 -23.94274,9.91165 -24.66518,10.19785 -25.74218,10.19777 -1.07685,-8e-5 -1.80301,-0.28774 -25.74219,-10.19748 C 20.71783,86.71729 9.4982498,82.09076 9.3341598,82.04467 c -0.2785,-0.0782 -0.29834,0.20424 -0.29834,4.24824 l 0,4.33201 25.4438502,10.51568 c 13.99412,5.78362 25.55892,10.47754 25.69956,10.43092 0.14065,-0.0466 11.62874,-4.77855 25.52909,-10.51541 z m 0,-17.9002 25.27336,-10.43066 0,-4.33228 c 0,-4.0441 -0.0198,-4.32673 -0.29834,-4.24886 -0.16408,0.0459 -11.38366,4.67245 -24.9324,10.28127 C 61.8082,84.33703 61.08576,84.62322 60.00876,84.62314 58.93191,84.62306 58.20575,84.3354 34.26657,74.42566 20.71783,68.81709 9.4982498,64.19056 9.3341598,64.14448 c -0.2785,-0.0782 -0.29834,0.20424 -0.29834,4.24823 l 0,4.33202 25.4438502,10.51568 c 13.99412,5.78362 25.55892,10.47753 25.69956,10.43092 0.14065,-0.0466 11.62874,-4.77855 25.52909,-10.51542 z m 0,-17.90019 25.27336,-10.43067 0,-2.34343 0,-2.34344 -1.23596,0.93108 c -2.64592,1.99324 -5.02,2.81166 -10.59421,3.65219 -3.70469,0.55862 -5.631847,1.903619 -8.299753,3.196507 -3.145804,1.524481 -5.701509,4.254053 -9.022377,5.345823 -3.136464,1.031145 -6.66584,0.138094 -9.855,0.99245 -3.90083,1.045008 -7.009258,4.887174 -11.04669,4.974661 -4.363146,0.09454 -7.976157,-3.610703 -12.159535,-4.853818 C 44.895211,63.226205 40.614193,63.545829 36.883758,61.994041 33.576978,60.618485 31.266145,57.386042 27.95889,56.01163 23.641897,54.217596 18.170964,55.978461 14.205915,53.263809 11.977032,51.743848 10.522049,49.791093 9.1210598,46.96714 l -0.0459,3.90352 c -0.0252,2.14694 -0.0252,3.92316 0,3.94715 0.25965,0.24688 50.9147502,21.01593 51.1040502,20.95313 0.14065,-0.0467 11.62874,-4.77864 25.52909,-10.5155 z M 43.17856,32.324 c 0.12983,-3.37642 0.81559,-5.79853 2.44247,-8.62683 2.89392,-5.03105 8.03604,-8.55755 13.68181,-9.38307 1.3457,-0.19677 4.86255,-0.13929 6.59166,0.10773 0.6624,0.0946 0.69683,0.0754 0.99407,-0.55552 0.16934,-0.35945 0.8681,-1.49741 1.5528,-2.5288 4.5508,-6.85511 10.61435,-10.79257001 18.11592,-11.76384001 0.83825,-0.10853 0.90327,-0.0898 1.08691,0.31324 0.1082,0.23748 0.1469,0.68675 0.0868,1.00729 L 87.62245,1.4728 85.96201,1.66762 c -5.17552,0.60722 -10.28704,3.42217 -13.9508,7.6828 -2.58838,3.01006 -5.28853,7.83658 -6.65929,11.9035 -0.56505,1.67646 -0.61988,1.96612 -0.39927,2.10957 0.14064,0.0915 0.43754,0.14641 0.65976,0.12212 0.35341,-0.0386 0.49362,-0.30058 1.11864,-2.08989 0.74615,-2.1361 2.00834,-5.12129 2.38065,-5.63045 0.20055,-0.27428 0.33255,-0.23654 1.77108,0.50644 4.82216,2.49054 8.19863,6.69077 9.67579,12.03639 0.34258,1.23974 0.46718,2.16621 0.54006,4.0159 C 81.093315,42.360137 67.907089,43.576435 61.59448,43.704323 51.197331,43.2521 42.954623,41.781805 43.17856,32.324 Z m 27.52769,-4.9117 c 0.33289,-0.27625 0.25093,-0.78465 -0.17048,-1.05748 -0.21096,-0.13658 -1.07401,-0.37076 -1.91787,-0.5204 -3.50632,-0.62177 -4.45342,-0.92992 -5.93429,-1.93074 -0.76795,-0.51901 -1.68417,-1.19973 -2.03605,-1.51271 -0.98233,-0.87373 -1.83215,-0.71061 -1.83215,0.35168 0,0.39891 0.21591,0.72104 0.98025,1.46248 1.5724,1.52531 4.79478,3.00943 7.42687,3.42057 1.05698,0.1651 3.18467,0.0348 3.48372,-0.2134 z"
     style="fill:#4d3829;fill-opacity:1" /></svg>