<?xml version="1.0" encoding="UTF-8" standalone="no"?>
<svg
   xmlns:dc="http://purl.org/dc/elements/1.1/"
   xmlns:cc="http://creativecommons.org/ns#"
   xmlns:rdf="http://www.w3.org/1999/02/22-rdf-syntax-ns#"
   xmlns:svg="http://www.w3.org/2000/svg"
   xmlns="http://www.w3.org/2000/svg"
   version="1.1"
   id="svg2"
   viewBox="0 0 414.8813 12.8348"
   height="3.6222658mm"
   width="117.08872mm">
  <defs
     id="defs4" />
  <metadata
     id="metadata7">
    <rdf:RDF>
      <cc:Work
         rdf:about="">
        <dc:format>image/svg+xml</dc:format>
        <dc:type
           rdf:resource="http://purl.org/dc/dcmitype/StillImage" />
        <dc:title></dc:title>
      </cc:Work>
    </rdf:RDF>
  </metadata>
  <g
     transform="translate(-350.50479,-11.56128)"
     id="layer1">
    <path
       id="rect4136"
       d="m 350.50479,11.56128 c 0.53635,4.529194 6.40667,5.995617 10.49159,6.949867 6.63333,1.549569 13.46207,-2.647888 20.27355,-2.569775 6.71677,0.07703 8.92837,4.749885 19.92831,2.991845 4.77576,-0.763274 9.2438,1.669197 14.23633,1.534653 6.60109,-0.177893 12.30707,-3.426169 17.48633,-3.007721 11.59594,0.93687 12.66562,5.132348 21.48242,4.946722 11.35144,-0.238989 17.03074,-11.906794 24.78516,-7.472959 18.23201,10.42473 19.42271,-1.951673 34.36914,2.841627 6.91713,2.218314 10.78541,5.332266 22.47265,5.473618 14.4274,0.174494 17.03027,-5.61334 29.08203,-6.105643 14.67873,-0.599612 12.28511,4.328226 24.43946,4.630709 11.23012,0.279482 15.33799,-4.62872 21.16406,-3.051889 7.23011,1.956836 6.5565,5.598286 14.13086,5.672681 9.7565,0.09583 9.76209,-6.304876 19.58008,-6.935488 5.87323,-0.37724 5.48662,4.318193 13.79297,4.783117 11.34985,0.635275 17.89162,-3.887871 23.88085,-3.835701 10.15238,0.08843 17.66162,5.494638 28.42188,5.052475 10.4391,-0.428965 12.23847,-7.000338 22.76367,-6.970325 6.56919,0.01873 6.93737,4.273592 13.96094,4.430402 9.40361,0.209947 12.70685,-0.862256 16.84853,-5.006242 1.06962,-1.070214 1.29048,-1.624633 1.29048,-4.351973 z"
       style="opacity:1;fill:#fe9cad;fill-opacity:1;stroke:none;stroke-width:0;stroke-linecap:round;stroke-linejoin:round;stroke-miterlimit:4;stroke-dasharray:none;stroke-opacity:1" />
  </g>
</svg>
