<?xml version="1.0" encoding="UTF-8" standalone="no"?>
<svg
   xmlns:dc="http://purl.org/dc/elements/1.1/"
   xmlns:cc="http://creativecommons.org/ns#"
   xmlns:rdf="http://www.w3.org/1999/02/22-rdf-syntax-ns#"
   xmlns:svg="http://www.w3.org/2000/svg"
   xmlns="http://www.w3.org/2000/svg"
   xmlns:sodipodi="http://sodipodi.sourceforge.net/DTD/sodipodi-0.dtd"
   xmlns:inkscape="http://www.inkscape.org/namespaces/inkscape"
   version="1.1"
   id="Layer_1"
   x="0px"
   y="0px"
   viewBox="0 0 250 250"
   xml:space="preserve"
   inkscape:version="0.91 r13725"
   sodipodi:docname="logo.svg"
   width="250"
   height="250"><sodipodi:namedview
     pagecolor="#ffffff"
     bordercolor="#666666"
     borderopacity="1"
     objecttolerance="10"
     gridtolerance="10"
     guidetolerance="10"
     inkscape:pageopacity="0"
     inkscape:pageshadow="2"
     inkscape:window-width="1920"
     inkscape:window-height="1027"
     id="namedview9"
     showgrid="false"
     fit-margin-top="0"
     fit-margin-left="0"
     fit-margin-right="0"
     fit-margin-bottom="0"
     inkscape:zoom="0.98333333"
     inkscape:cx="-77.881359"
     inkscape:cy="125"
     inkscape:window-x="-8"
     inkscape:window-y="-8"
     inkscape:window-maximized="1"
     inkscape:current-layer="g4137" /><metadata
     id="metadata23"><rdf:RDF><cc:Work
         rdf:about=""><dc:format>image/svg+xml</dc:format><dc:type
           rdf:resource="http://purl.org/dc/dcmitype/StillImage" /><dc:title></dc:title></cc:Work></rdf:RDF></metadata><defs
     id="defs21" /><style
     type="text/css"
     id="style3">
	.st0{fill:#414042;}
	.st1{fill:#769CD2;}
	.st2{fill:#26B8B0;}
	.st3{fill:#9C82BC;}
	.st4{fill:#676767;}
</style><g
     transform="matrix(0.33333336,0,0,0.33333336,105,105)"
     id="g4153"><g
       id="g4137"
       transform="matrix(2.0833333,0,0,2.0833333,-65.000003,-65.000003)"><circle
         r="179.99998"
         cy="60"
         cx="60"
         id="path4151"
         style="opacity:1;fill:#fe9cc1;fill-opacity:1;stroke:none;stroke-width:0;stroke-linecap:round;stroke-linejoin:round;stroke-miterlimit:4;stroke-dasharray:none;stroke-opacity:1" /><path
         id="path4146"
         d="m 102.97743,-75.536553 c -0.20149,0.01145 -0.45813,0.04089 -0.79102,0.08398 -11.916113,1.542846 -21.548469,7.798275 -28.777337,18.6875 -1.087635,1.638346 -2.197803,3.444645 -2.466797,4.015625 -0.47216,1.002206 -0.525914,1.033084 -1.578125,0.882813 -2.746662,-0.392387 -8.333081,-0.482488 -10.470703,-0.169922 -8.96821,1.311324 -17.137432,6.91256 -21.734375,14.904297 -2.584271,4.492707 -3.672673,8.339739 -3.878906,13.703125 -0.35572,15.0235669 12.736259,17.3597807 29.251953,18.078129 10.027472,-0.203148 30.973979,-2.1358911 30.982422,-18.078125 -0.115768,-2.938201 -0.313239,-4.4096 -0.857422,-6.378906 -2.346444,-8.491426 -7.709221,-15.162961 -15.36914,-19.119141 -2.285082,-1.180211 -2.495883,-1.240378 -2.814454,-0.804687 -0.591408,0.808792 -2.596003,5.5502 -3.78125,8.943359 -0.992833,2.842288 -1.215958,3.258992 -1.777343,3.320312 -0.352993,0.03858 -0.823471,-0.04997 -1.046875,-0.195312 -0.350435,-0.227868 -0.264761,-0.686581 0.632812,-3.349609 2.177429,-6.460233 6.466527,-14.126775 10.578125,-18.908204 5.81982,-6.767939 13.940889,-11.240519 22.162105,-12.205078 l 2.63672,-0.308594 0.17188,-0.919921 c 0.0955,-0.509172 0.0352,-1.222377 -0.13672,-1.59961 -0.21878,-0.480166 -0.33108,-0.616383 -0.93555,-0.582031 z m -65.404294,30.5625 -0.898438,0.371094 c -0.493971,0.203691 -15.64223,6.425192 -33.6640617,13.826172 -18.0218313,7.400996 -33.5411653,13.782264 -34.4882823,14.179687 -0.9471,0.397423 -2.014971,1.06727 -2.371093,1.488281 l -0.646485,0.765625 0,44.341797 c 0,49.777804 -0.147098,46.209169 1.980469,48.324219 1.055864,1.04966 4.1605,2.37596 45.607422,19.494145 24.459085,10.101943 44.8077,18.475563 45.222656,18.609373 l 0.002,0 c 1.998981,0.6431 2.032255,0.63109 48.281247,-18.470703 41.82093,-17.272914 44.88583,-18.583904 45.94727,-19.638674 2.13608,-2.12274 1.99556,1.40809 1.91406,-48.03711 -0.0684,-41.497642 -0.0984,-44.037444 -0.55078,-44.865234 -0.26372,-0.482597 -0.93475,-1.106257 -1.49023,-1.386719 -0.72699,-0.367099 -56.907591,-23.573987 -59.56641,-24.605469 -0.183787,-0.07129 0.324372,1.192455 1.128906,2.808594 2.760323,5.54487 3.609073,9.67378 3.576173,15.628906 -0.03212,5.811847 -1.86751,9.395469 -4.687501,12.0625 C 85.640107,-3.36849 75.143259,-1.616474 63.272354,-1.655694 51.40145,-1.694907 44.674943,-2.399877 36.274308,-7.8119436 27.873674,-13.224011 28.889079,-25.040122 29.510636,-28.245537 c 1.148219,-5.921436 3.344577,-10.606866 7.49414,-15.988282 l 0.56836,-0.740234 z m 21.849609,4.888672 c 0.465868,0.06877 1.020313,0.358441 1.605469,0.878906 0.558955,0.497163 2.014499,1.577905 3.234375,2.402344 2.352336,1.589785 3.858004,2.078735 9.427734,3.066406 1.340457,0.237701 2.709816,0.609217 3.044922,0.826172 0.669403,0.433386 0.800275,1.240869 0.271485,1.679688 -0.475037,0.394261 -3.854209,0.602102 -5.533204,0.339843 -4.18103,-0.653089 -9.299144,-3.010665 -11.796875,-5.433593 -1.214141,-1.177765 -1.558593,-1.688604 -1.558593,-2.322266 0,-1.054643 0.528241,-1.552123 1.304687,-1.4375 z m -80.242187,39.91601604 c 2.225449,4.48580096 4.535629,7.58947396 8.076172,10.00390596 6.298413,4.312177 14.9901862,1.513489 21.8476565,4.363281 5.2535175,2.18323 8.9230165,7.318858 14.1757805,9.503906 5.925734,2.464988 12.7268,1.957023 18.878906,3.785157 6.645225,1.974668 12.383669,7.861112 19.314453,7.710937 6.413392,-0.138972 11.352426,-6.242366 17.548828,-7.902344 5.065927,-1.35713 10.672079,0.06179 15.654298,-1.576172 5.27514,-1.734258 9.334978,-6.070574 14.332028,-8.492187 4.23793,-2.05373 7.29875,-4.190766 13.18359,-5.078125 8.85454,-1.335167 12.62514,-2.634554 16.82813,-5.800781 l 1.96289,-1.480469 0,3.722656 0,3.722656 -40.14648,16.570313 0,-0.002 c -22.08047,9.112904 -40.329317,16.630898 -40.552737,16.705078 -0.3007,0.09976 -80.765285,-32.892992 -81.177734,-33.285156 -0.04003,-0.03811 -0.04003,-2.859154 0,-6.269532 l 0.07422,-6.20117096 z m 0.191406,27.27734296 c 0.0432,-0.01293 0.09119,-0.0058 0.146484,0.0098 0.260654,0.0732 18.0835258,7.422913 39.605469,16.332031 38.026981,15.741458 39.180067,16.197136 40.890625,16.197266 1.710796,1.2e-4 2.857993,-0.454726 40.890628,-16.199219 21.52195,-8.909515 39.34482,-16.259121 39.60546,-16.332031 0.44241,-0.123695 0.47266,0.326015 0.47266,6.75 l 0,6.882812 -40.14648,16.56836 c -22.080469,9.11292 -40.329317,16.629125 -40.552737,16.703125 -0.223405,0.07404 -18.592842,-7.38117 -40.822265,-16.56836 l -40.417969,-16.705078 0,-6.880859 c 0,-5.620834 0.02572,-6.66733 0.328125,-6.757813 z m 0,28.433594 c 0.0432,-0.01293 0.09119,-0.0058 0.146484,0.0098 0.260654,0.07321 18.0835258,7.422911 39.605469,16.332031 38.026981,15.741448 39.180067,16.197138 40.890625,16.197268 1.710796,1.3e-4 2.857993,-0.45279 40.890628,-16.197268 21.52195,-8.90952 39.34482,-16.259131 39.60546,-16.332031 0.44241,-0.1237 0.47266,0.324046 0.47266,6.748047 l 0,6.882812 -40.14648,16.56836 c -22.080469,9.1129 -40.329317,16.629119 -40.552737,16.703119 -0.223405,0.0741 -18.592842,-7.381179 -40.822265,-16.568359 l -40.417969,-16.705073 0,-6.880859 c 0,-5.620852 0.02572,-6.66733 0.328125,-6.757813 z m 38.679687,84.074218 c -5.512625,0 -10.6619375,2.03182 -15.4492179,6.09375 -0.6286327,-0.38684 -1.2322236,-0.87089 -1.81250002,-1.45117 l -2.24999998,-2.17578 c -0.8704145,-0.87043 -1.6433234,-1.33057 -2.3203125,-1.37891 -0.9671273,0 -1.4511719,0.65337 -1.4511719,1.95899 0,0.72535 0.3147267,1.81298 0.9433594,3.26367 0.6769892,1.40233 1.5713974,2.75688 2.6835938,4.0625 -1.4506909,1.78919 -2.7554629,3.74732 -3.9160157,5.875 -3.4816582,6.47975 -5.2226562,13.32225 -5.2226562,20.52734 0,5.85112 1.8127258,10.42076 5.4394531,13.70899 3.6267273,3.28823 8.7282218,4.93359 15.3046869,4.93359 5.415913,0 10.107044,-1.30673 14.072266,-3.91797 1.229206,-0.79898 2.284426,-1.72839 3.201172,-2.76171 0.507966,1.27379 1.272664,2.43825 2.298828,3.48828 2.079324,2.12768 4.810367,3.1914 8.195312,3.1914 3.433302,0 6.166299,-0.65336 8.197266,-1.95898 2.030967,-1.35398 3.674375,-3.07107 4.93164,-5.15039 0.870415,4.49714 2.587504,6.74609 5.150391,6.74609 1.885898,0 3.820124,-0.46013 5.802735,-1.3789 1.982611,-0.91877 3.771427,-2.07814 5.367187,-3.48047 1.161058,-1.02447 2.158303,-2.11277 3.005859,-3.25782 -0.01457,0.65256 -0.0293,1.30435 -0.0293,1.95118 0,4.69056 1.137407,7.03711 3.410156,7.03711 1.934254,-1e-5 3.842617,-0.75096 5.728515,-2.25 0.725346,-0.58028 1.137663,-1.30537 1.234375,-2.17579 0.09671,-0.91877 0.144532,-1.83708 0.144532,-2.75586 l 0.507812,-9.9375 c 0.773701,1.98262 1.596382,3.94075 2.466797,5.875 3.094807,6.91496 6.600713,10.37305 10.517578,10.37305 3.965227,0.0483 7.542859,-1.52332 10.734379,-4.71484 0.51205,-0.51205 0.96854,-1.0286 1.39844,-1.54688 0.0361,0.0797 0.0693,0.16402 0.10742,0.24024 2.07932,4.15864 5.99754,6.23828 11.75195,6.23828 7.25345,0 12.95854,-1.95814 17.11719,-5.875 1.69247,-1.59576 2.9016,-3.21526 3.62695,-4.85938 0.72535,-1.69247 1.08789,-3.21633 1.08789,-4.57031 0,-1.35397 -0.33863,-2.03125 -1.01562,-2.03125 -0.43521,0 -1.06271,0.48405 -1.88477,1.45117 -0.82205,0.91877 -1.88773,1.93468 -3.19336,3.04688 -3.53001,2.99809 -7.17938,4.49609 -10.95117,4.49609 -1.78919,-0.0483 -3.38478,-0.43481 -4.78711,-1.16016 -1.40236,-0.72534 -2.1294,-1.95839 -2.17773,-3.69921 l 0,-1.8125 c 1.93425,-0.87042 3.89434,-1.64528 5.87695,-2.32227 2.03097,-0.72535 3.8676,-1.52216 5.51172,-2.39258 1.64411,-0.91877 2.97475,-2.03032 3.99023,-3.33594 1.06384,-1.35397 1.59571,-3.07107 1.59571,-5.15039 0,-2.07932 -0.72509,-3.7725 -2.17579,-5.07812 -1.40233,-1.30563 -3.43415,-1.95899 -6.09375,-1.95899 -2.61124,1e-5 -5.07733,0.60554 -7.39843,1.81446 -2.3211,1.16055 -4.37683,2.80396 -6.16602,4.93164 -1.74083,2.12768 -3.14319,4.66745 -4.20703,7.61719 -0.8151,2.223 -1.31137,4.38664 -1.50195,6.49609 -0.41343,0.49548 -0.76563,0.94112 -1.23633,1.48242 -0.96713,1.06384 -2.05477,2.05388 -3.26367,2.97266 -1.208922,0.91877 -2.563462,1.3789 -4.062502,1.3789 -3.094808,0 -5.295944,-2.58758 -6.601566,-7.76171 2.90138,0.0484 5.779786,-0.91778 8.632816,-2.90039 2.853022,-1.98262 4.279292,-4.40088 4.279292,-7.25391 0,-2.85302 -0.82267,-5.00439 -2.46679,-6.45508 -1.644122,-1.49905 -4.012622,-2.24805 -7.107427,-2.24805 -1.547404,0 -2.901947,0.21714 -4.0625,0.65235 -3.288233,1.2089 -5.77823,3.5774 -7.470703,7.10742 l 0.724609,-6.0918 c 0.822058,-1.30562 1.644739,-2.51476 2.466797,-3.62695 0.822058,-1.16055 1.571058,-2.27405 2.248047,-3.33789 0.676989,-1.1122 1.208852,-2.22375 1.595703,-3.33594 0.435211,-1.16055 0.628438,-2.31991 0.580078,-3.48047 0,-1.2089 -0.386455,-2.41804 -1.160156,-3.62695 -0.773702,-1.25727 -1.498792,-2.17754 -2.175781,-2.75781 -0.676989,-0.62864 -1.330352,-0.94141 -1.958985,-0.94141 -0.580276,0 -1.112139,0.14345 -1.595703,0.43359 -0.483564,0.29014 -1.160835,1.06501 -2.03125,2.32227 -0.822058,1.25727 -2.00533,3.77117 -3.552734,7.54297 -1.499047,3.72344 -3.046818,9.28507 -4.642578,16.68359 -0.757344,3.51132 -1.328652,6.94864 -1.726563,10.31836 -0.352775,0.2287 -0.785801,0.61877 -1.322265,1.21485 -4.835636,5.02906 -7.883359,7.54296 -9.140625,7.54296 -1.015484,0 -1.521485,-2.00595 -1.521485,-6.01953 0,-4.01358 0.193228,-7.13303 0.580078,-9.35742 1.305622,-2.22439 2.295667,-4.13471 2.972657,-5.73047 0,-1.30562 -0.772909,-2.68408 -2.320313,-4.13476 -1.499047,-1.49906 -3.094637,-2.24805 -4.787109,-2.24805 -0.870415,0 -1.645277,0.70118 -2.322266,2.10352 -1.402335,-0.77371 -3.21506,-1.16016 -5.439453,-1.16016 -2.224393,0 -4.351845,0.31277 -6.382813,0.94141 -1.982611,0.62863 -4.133972,1.93535 -6.455078,3.91796 -4.388219,3.80571 -7.010851,8.73597 -7.875,14.78711 -1.002516,1.27751 -2.119166,2.36999 -3.355468,3.27344 -3.820153,2.80467 -7.907693,4.20703 -12.259766,4.20703 -7.0600286,0 -10.58984322,-4.42422 -10.58984332,-13.27344 0,-6.38304 1.71708892,-12.50044 5.15039082,-18.35156 4.013578,1.54741 7.8820285,2.32227 11.6054685,2.32227 3.771796,0 6.769748,-0.8705 8.99414,-2.61133 2.224393,-1.74083 3.337891,-3.89414 3.337891,-6.45703 0,-1.69247 -0.290818,-3.11874 -0.871094,-4.2793 -1.644117,-3.0948 -5.247612,-4.64258 -10.808594,-4.64258 z m 0.07422,7.18164 c 2.369462,0 3.552734,0.94223 3.552734,2.82813 10e-7,1.59576 -1.45018,2.39453 -4.351562,2.39453 -2.901382,0 -5.584607,-0.41036 -8.0507805,-1.23242 2.6595995,-2.6596 5.6097315,-3.99024 8.8496085,-3.99024 z m 33.642578,17.91602 c -0.967127,3.86851 -1.451172,8.50987 -1.451172,13.92578 -0.435207,1.5474 -0.990979,2.85413 -1.667968,3.91797 -1.934255,3.09483 -4.376434,4.66651 -7.326172,4.71484 -2.756313,0 -4.134766,-1.86249 -4.134766,-5.58593 0,-4.5455 1.452134,-8.31636 4.353516,-11.31446 2.901381,-2.99809 6.309696,-4.88449 10.226562,-5.6582 z m 69.980461,1.37891 c 1.49905,0 2.25,0.60359 2.25,1.8125 -0.0483,1.35398 -0.7993,2.56311 -2.25,3.62695 -0.67698,0.48357 -1.4738,0.99152 -2.39257,1.52344 -0.87042,0.53192 -1.81459,1.13551 -2.83008,1.8125 0.96713,-5.85112 2.70812,-8.77539 5.22265,-8.77539 z m -31.679679,1.37695 c 1.982611,0 2.974609,0.8705 2.974609,2.61133 0,0.87041 -0.290817,1.69309 -0.871094,2.46679 -1.837542,2.41782 -5.271719,3.77236 -10.300781,4.0625 0.483564,-1.16055 1.065198,-2.29795 1.742187,-3.41015 2.321106,-3.82015 4.472468,-5.73047 6.455079,-5.73047 z"
         style="fill:#4d3829;fill-opacity:1"
         inkscape:connector-curvature="0" /></g></g></svg>