<?xml version="1.0" encoding="UTF-8" standalone="no"?>
<svg
   xmlns:dc="http://purl.org/dc/elements/1.1/"
   xmlns:cc="http://creativecommons.org/ns#"
   xmlns:rdf="http://www.w3.org/1999/02/22-rdf-syntax-ns#"
   xmlns:svg="http://www.w3.org/2000/svg"
   xmlns="http://www.w3.org/2000/svg"
   xmlns:sodipodi="http://sodipodi.sourceforge.net/DTD/sodipodi-0.dtd"
   xmlns:inkscape="http://www.inkscape.org/namespaces/inkscape"
   version="1.1"
   id="svg2"
   viewBox="0 0 249.99998 249.99998"
   height="70.55555mm"
   width="70.55555mm"
   inkscape:version="0.91 r13725"
   sodipodi:docname="logo.svg">
  <sodipodi:namedview
     pagecolor="#ffffff"
     bordercolor="#666666"
     borderopacity="1"
     objecttolerance="10"
     gridtolerance="10"
     guidetolerance="10"
     inkscape:pageopacity="0"
     inkscape:pageshadow="2"
     inkscape:window-width="1920"
     inkscape:window-height="1027"
     id="namedview9"
     showgrid="false"
     inkscape:zoom="1.8769167"
     inkscape:cx="140.01185"
     inkscape:cy="137.61849"
     inkscape:window-x="-8"
     inkscape:window-y="-8"
     inkscape:window-maximized="1"
     inkscape:current-layer="g4139" />
  <defs
     id="defs4" />
  <metadata
     id="metadata7">
    <rdf:RDF>
      <cc:Work
         rdf:about="">
        <dc:format>image/svg+xml</dc:format>
        <dc:type
           rdf:resource="http://purl.org/dc/dcmitype/StillImage" />
        <dc:title></dc:title>
      </cc:Work>
    </rdf:RDF>
  </metadata>
  <g
     transform="translate(-247.04725,-401.18111)"
     id="layer1">
    <g
       id="g4148">
      <g
         id="g4139">
        <path
           id="path4151"
           d="m 497.04724,526.1811 a 124.99999,124.99999 0 0 1 -125,125 124.99999,124.99999 0 0 1 -124.99999,-125 124.99999,124.99999 0 0 1 124.99999,-124.99999 124.99999,124.99999 0 0 1 125,124.99999 z"
           style="opacity:1;fill:#fe9cc1;fill-opacity:1;stroke:none;stroke-width:0;stroke-linecap:round;stroke-linejoin:round;stroke-miterlimit:4;stroke-dasharray:none;stroke-opacity:1" />
        <path
           inkscape:connector-curvature="0"
           id="path4137"
           d="m 401.89286,432.0585 c -0.13993,0.008 -0.31815,0.0284 -0.54932,0.0583 -8.27508,1.07142 -14.96422,5.41547 -19.98427,12.97743 -0.7553,1.13774 -1.52625,2.39211 -1.71305,2.78863 -0.32789,0.69597 -0.36522,0.71742 -1.09592,0.61306 -1.9074,-0.27249 -5.78686,-0.33506 -7.27132,-0.118 -6.22793,0.91064 -11.901,4.80039 -15.09332,10.35021 -1.79463,3.11993 -2.55047,5.79148 -2.69368,9.51606 -0.24703,10.43303 8.84462,12.0554 20.31385,12.55425 6.96353,-0.14107 21.50971,-1.48325 21.51558,-12.55425 -0.0804,-2.04042 -0.21753,-3.06222 -0.59544,-4.4298 -1.62947,-5.89682 -5.35362,-10.52983 -10.67301,-13.27718 -1.58686,-0.81959 -1.73325,-0.86137 -1.95448,-0.55881 -0.4107,0.56166 -1.80278,3.85431 -2.62587,6.21067 -0.68947,1.97381 -0.84442,2.26319 -1.23427,2.30577 -0.24513,0.0268 -0.57185,-0.0347 -0.72699,-0.13563 -0.24336,-0.15825 -0.18386,-0.4768 0.43945,-2.32612 1.5121,-4.48628 4.49064,-9.81026 7.34592,-13.1307 4.04154,-4.69996 9.68117,-7.80592 15.39035,-8.47575 l 1.83106,-0.2143 0.11936,-0.63883 c 0.0663,-0.3536 0.0244,-0.84888 -0.0949,-1.11085 -0.15193,-0.33344 -0.22992,-0.42804 -0.64969,-0.40418 z m -45.41965,21.22396 -0.62392,0.2577 c -0.34304,0.14145 -10.86266,4.46194 -23.37782,9.60151 -12.51517,5.13958 -23.29248,9.57102 -23.9502,9.847 -0.65771,0.27599 -1.39929,0.74116 -1.6466,1.03353 l -0.44894,0.53169 0,30.79291 c 0,34.56793 -0.10215,32.08971 1.37532,33.55849 0.73324,0.72893 2.88924,1.64998 31.67183,13.53761 16.98548,7.01523 31.11646,12.83025 31.40462,12.92317 l 10e-4,0 c 1.38818,0.4466 1.41129,0.43826 33.52865,-12.82688 29.04231,-11.99508 31.17071,-12.90549 31.90782,-13.63796 1.48339,-1.47413 1.38581,0.97784 1.32921,-33.35911 -0.0475,-28.81781 -0.0683,-30.58156 -0.38248,-31.15642 -0.18314,-0.33513 -0.64914,-0.76823 -1.03489,-0.963 -0.50485,-0.25493 -39.51916,-16.37082 -41.36556,-17.08713 -0.12763,-0.0495 0.22526,0.82809 0.78396,1.95041 1.9169,3.85061 2.50631,6.71791 2.48346,10.85341 -0.0223,4.03601 -1.29688,6.52463 -3.25521,8.37674 -5.0208,4.65908 -12.31028,5.87576 -20.55396,5.84852 -8.2437,-0.0272 -12.91488,-0.51679 -18.74866,-4.27517 -5.83377,-3.75838 -5.12863,-11.96402 -4.69699,-14.19 0.79737,-4.11211 2.32262,-7.36588 5.20426,-11.10297 l 0.3947,-0.51405 z m 15.17334,3.39491 c 0.32352,0.0478 0.70855,0.24891 1.11491,0.61035 0.38816,0.34525 1.39895,1.09577 2.24609,1.66829 1.63357,1.10402 2.67917,1.44357 6.54704,2.12945 0.93087,0.16507 1.88181,0.42307 2.11453,0.57373 0.46486,0.30097 0.55574,0.86172 0.18853,1.16645 -0.32989,0.2738 -2.67654,0.41813 -3.84251,0.23601 -2.90349,-0.45354 -6.45773,-2.09074 -8.19227,-3.77333 -0.84315,-0.8179 -1.08236,-1.17265 -1.08236,-1.61269 0,-0.73239 0.36684,-1.07786 0.90604,-0.99826 z m -55.72375,27.71945 c 1.54545,3.11514 3.14974,5.27047 5.60845,6.94716 4.3739,2.99457 10.40986,1.05104 15.17199,3.03006 3.64828,1.51613 6.19654,5.08254 9.84429,6.59993 4.1151,1.7118 8.83806,1.35905 13.11035,2.62859 4.61474,1.37129 8.59977,5.4591 13.41282,5.35481 4.45374,-0.0965 7.88363,-4.33497 12.18669,-5.48774 3.518,-0.94245 7.41116,0.0429 10.87104,-1.09456 3.66329,-1.20435 6.48262,-4.21568 9.9528,-5.89735 2.943,-1.4262 5.06857,-2.91026 9.15526,-3.52648 6.14899,-0.9272 8.76746,-1.82955 11.68621,-4.02832 l 1.36311,-1.0281 0,2.58518 0,2.58517 -27.87949,11.50717 0,-10e-4 c -15.33367,6.32841 -28.00648,11.54924 -28.16163,11.60076 -0.20882,0.0693 -56.08701,-22.84236 -56.37343,-23.1147 -0.0278,-0.0265 -0.0278,-1.98552 0,-4.35384 l 0.0515,-4.30637 z m 0.13292,18.94261 c 0.03,-0.009 0.0633,-0.004 0.10172,0.007 0.18101,0.0508 12.55801,5.1548 27.50381,11.34168 26.40762,10.93157 27.20838,11.24802 28.39627,11.24811 1.18805,8e-5 1.98471,-0.31578 28.39627,-11.24946 14.94579,-6.18716 27.32279,-11.29106 27.50379,-11.34169 0.30723,-0.0859 0.32823,0.2264 0.32823,4.6875 l 0,4.77973 -27.87949,11.50581 c -15.33366,6.32842 -28.00648,11.54801 -28.16163,11.5994 -0.15514,0.0514 -12.9117,-5.12582 -28.3488,-11.50581 l -28.06804,-11.60075 0,-4.77837 c 0,-3.90336 0.0179,-4.6301 0.22787,-4.69293 z m 0,19.74555 c 0.03,-0.009 0.0633,-0.004 0.10172,0.007 0.18101,0.0508 12.55801,5.1548 27.50381,11.3417 26.40762,10.93156 27.20838,11.24801 28.39627,11.2481 1.18805,9e-5 1.98471,-0.31445 28.39627,-11.2481 14.94579,-6.18718 27.32279,-11.29108 27.50379,-11.3417 0.30723,-0.0859 0.32823,0.22503 0.32823,4.68614 l 0,4.77974 -27.87949,11.5058 c -15.33366,6.32841 -28.00648,11.54801 -28.16163,11.59939 -0.15514,0.0515 -12.9117,-5.12582 -28.3488,-11.5058 l -28.06804,-11.60076 0,-4.77837 c 0,-3.90337 0.0179,-4.63009 0.22787,-4.69292 z m 26.8609,58.38488 c -3.82821,0 -7.40413,1.41098 -10.72863,4.23177 -0.43655,-0.26864 -0.85571,-0.60479 -1.25868,-1.00776 l -1.5625,-1.51096 c -0.60445,-0.60446 -1.14119,-0.924 -1.61133,-0.95757 -0.67161,0 -1.00775,0.45373 -1.00775,1.36041 0,0.50371 0.21856,1.25901 0.65511,2.26643 0.47013,0.97385 1.09125,1.9145 1.8636,2.82119 -1.00742,1.24249 -1.91351,2.6023 -2.71945,4.07986 -2.41782,4.49982 -3.62685,9.25156 -3.62685,14.2551 0,4.06327 1.25884,7.23663 3.7774,9.52013 2.51856,2.28349 6.06127,3.4261 10.62826,3.4261 3.76105,0 7.01878,-0.90745 9.7724,-2.72081 0.85362,-0.55485 1.58641,-1.20027 2.22304,-1.91785 0.35276,0.88457 0.8838,1.69322 1.59641,2.42241 1.44397,1.47756 3.34053,2.21625 5.69119,2.21625 2.38424,0 4.28215,-0.45372 5.69255,-1.3604 1.41039,-0.94026 2.55164,-2.13269 3.42475,-3.57666 0.60445,3.12301 1.79687,4.68478 3.57666,4.68478 1.30965,0 2.65286,-0.31953 4.02967,-0.95757 1.37682,-0.63803 2.61905,-1.44315 3.72722,-2.41699 0.80629,-0.71144 1.49882,-1.4672 2.0874,-2.26237 -0.0101,0.45316 -0.0203,0.90579 -0.0203,1.35498 0,3.25734 0.78986,4.88688 2.36816,4.88688 1.34323,0 2.66849,-0.5215 3.97814,-1.5625 0.50371,-0.40297 0.79004,-0.9065 0.8572,-1.51096 0.0672,-0.63804 0.10037,-1.27575 0.10037,-1.91379 l 0.35265,-6.90104 c 0.53729,1.37681 1.1086,2.73663 1.71305,4.07986 2.14918,4.80205 4.58383,7.2035 7.30388,7.2035 2.75363,0.0336 5.23809,-1.05786 7.45443,-3.27419 0.35559,-0.35559 0.6726,-0.71431 0.97114,-1.07422 0.0251,0.0553 0.0481,0.1139 0.0746,0.16683 1.44397,2.88795 4.16495,4.33214 8.16107,4.33214 5.03712,0 8.99899,-1.35982 11.88694,-4.07986 1.17533,-1.10817 2.015,-2.23282 2.51872,-3.37457 0.50371,-1.17533 0.75547,-2.23356 0.75547,-3.17383 0,-0.94025 -0.23516,-1.41059 -0.70529,-1.41059 -0.30223,0 -0.73799,0.33615 -1.30887,1.00776 -0.57086,0.63803 -1.31092,1.34353 -2.21761,2.11589 -2.45139,2.082 -4.98568,3.12228 -7.60498,3.12228 -1.24249,-0.0335 -2.35054,-0.30195 -3.32438,-0.80566 -0.97386,-0.50371 -1.47875,-1.36 -1.51231,-2.5689 l 0,-1.25868 c 1.34323,-0.60446 2.7044,-1.14256 4.08121,-1.61269 1.4104,-0.50371 2.68584,-1.05705 3.82759,-1.66151 1.14174,-0.63804 2.0658,-1.40995 2.77099,-2.31663 0.73878,-0.94025 1.10813,-2.13269 1.10813,-3.57666 0,-1.44397 -0.50353,-2.61979 -1.51096,-3.52647 -0.97384,-0.90669 -2.38483,-1.36041 -4.23177,-1.36041 -1.81336,10e-6 -3.52593,0.42051 -5.1378,1.26004 -1.61188,0.80594 -3.03947,1.9472 -4.28196,3.42475 -1.20891,1.47756 -2.18277,3.24129 -2.92155,5.28972 -0.56604,1.54375 -0.91067,3.04628 -1.04302,4.51117 -0.2871,0.34409 -0.53169,0.65356 -0.85856,1.02946 -0.67162,0.73878 -1.42692,1.42631 -2.26644,2.06435 -0.83953,0.63803 -1.78018,0.95757 -2.82118,0.95757 -2.14917,0 -3.67774,-1.79693 -4.58442,-5.39008 2.01485,0.0336 4.01374,-0.63735 5.99501,-2.01416 1.98127,-1.37682 2.97173,-3.05617 2.97173,-5.03744 0,-1.98126 -0.5713,-3.47527 -1.71305,-4.48269 -1.14175,-1.04101 -2.78654,-1.56115 -4.93571,-1.56115 -1.07459,0 -2.01524,0.15079 -2.82118,0.45302 -2.2835,0.83952 -4.01266,2.48431 -5.18799,4.93571 l 0.5032,-4.23042 c 0.57087,-0.90668 1.14218,-1.74636 1.71305,-2.51871 0.57088,-0.80594 1.09102,-1.5792 1.56115,-2.31798 0.47013,-0.77236 0.83948,-1.54427 1.10812,-2.31663 0.30223,-0.80593 0.43642,-1.61104 0.40284,-2.41699 0,-0.83951 -0.26837,-1.67919 -0.80567,-2.51871 -0.53729,-0.87311 -1.04083,-1.51218 -1.51096,-1.91515 -0.47013,-0.43656 -0.92385,-0.65376 -1.3604,-0.65376 -0.40297,0 -0.77232,0.0996 -1.10813,0.30111 -0.33581,0.20148 -0.80614,0.73959 -1.41059,1.61268 -0.57087,0.87311 -1.39259,2.61887 -2.46718,5.23818 -1.041,2.58572 -2.11584,6.44796 -3.22401,11.58583 -0.52593,2.43841 -0.92267,4.82544 -1.199,7.16552 -0.24498,0.15882 -0.5457,0.42971 -0.91824,0.84365 -3.35808,3.4924 -5.47456,5.23817 -6.34766,5.23817 -0.7052,0 -1.05658,-1.39302 -1.05658,-4.18023 0,-2.78721 0.13418,-4.9535 0.40283,-6.49821 0.90668,-1.54472 1.59421,-2.87133 2.06434,-3.97949 0,-0.90669 -0.53674,-1.86395 -1.61133,-2.87137 -1.041,-1.04101 -2.14905,-1.56114 -3.32438,-1.56114 -0.60445,0 -1.14255,0.48693 -1.61268,1.46078 -0.97385,-0.5373 -2.23268,-0.80567 -3.7774,-0.80567 -1.54472,0 -3.02212,0.2172 -4.43251,0.65376 -1.37681,0.43655 -2.87081,1.34399 -4.48269,2.7208 -3.04738,2.64286 -4.86865,6.06665 -5.46875,10.26883 -0.6962,0.88716 -1.47165,1.64583 -2.33019,2.27322 -2.65288,1.94769 -5.49145,2.92155 -8.51373,2.92155 -4.90279,0 -7.35406,-3.07237 -7.35406,-9.21767 0,-4.43266 1.19243,-8.68086 3.57667,-12.74414 2.7872,1.07459 5.47363,1.61269 8.05935,1.61269 2.6193,0 4.70121,-0.60451 6.24593,-1.81342 1.54472,-1.20891 2.31798,-2.70427 2.31798,-4.48405 0,-1.17533 -0.20196,-2.16579 -0.60493,-2.97174 -1.14174,-2.14916 -3.64417,-3.22401 -7.50596,-3.22401 z m 0.0515,4.98725 c 1.64546,0 2.46717,0.65432 2.46717,1.96398 0,1.10816 -1.00707,1.66287 -3.02191,1.66287 -2.01485,0 -3.8782,-0.28498 -5.59082,-0.85585 1.84694,-1.84695 3.89564,-2.771 6.14556,-2.771 z m 23.3629,12.44168 c -0.67162,2.68647 -1.00776,5.90963 -1.00776,9.67068 -0.30223,1.07458 -0.68818,1.98204 -1.15831,2.72081 -1.34323,2.14919 -3.03919,3.24064 -5.08762,3.2742 -1.91411,0 -2.87136,-1.2934 -2.87136,-3.87912 0,-3.1566 1.00842,-5.77525 3.02327,-7.85726 2.01485,-2.08201 4.38173,-3.39201 7.10178,-3.92931 z m 48.59755,0.95758 c 1.041,0 1.5625,0.41916 1.5625,1.25868 -0.0336,0.94026 -0.55507,1.77993 -1.5625,2.51871 -0.47013,0.33581 -1.02348,0.68856 -1.66151,1.05795 -0.60446,0.36939 -1.26013,0.78855 -1.96534,1.25868 0.67162,-4.06328 1.88064,-6.09402 3.62685,-6.09402 z m -21.99978,0.95621 c 1.37681,0 2.0657,0.60452 2.0657,1.81343 0,0.60445 -0.20196,1.17575 -0.60493,1.71304 -1.27607,1.67905 -3.66091,2.6197 -7.15332,2.82118 0.33581,-0.80593 0.73972,-1.59579 1.20985,-2.36816 1.61188,-2.65288 3.10588,-3.97949 4.4827,-3.97949 z"
           style="fill:#4d3829;fill-opacity:1" />
      </g>
    </g>
  </g>
</svg>
