<?xml version="1.0" encoding="UTF-8" standalone="no"?>
<svg
   xmlns:dc="http://purl.org/dc/elements/1.1/"
   xmlns:cc="http://creativecommons.org/ns#"
   xmlns:rdf="http://www.w3.org/1999/02/22-rdf-syntax-ns#"
   xmlns:svg="http://www.w3.org/2000/svg"
   xmlns="http://www.w3.org/2000/svg"
   xmlns:sodipodi="http://sodipodi.sourceforge.net/DTD/sodipodi-0.dtd"
   xmlns:inkscape="http://www.inkscape.org/namespaces/inkscape"
   width="28.222221mm"
   height="25.841738mm"
   viewBox="0 0 99.999996 91.565213"
   id="svg2"
   version="1.1"
   inkscape:version="0.91 r13725"
   sodipodi:docname="sublime.svg">
  <sodipodi:namedview
     pagecolor="#ffffff"
     bordercolor="#666666"
     borderopacity="1"
     objecttolerance="10"
     gridtolerance="10"
     guidetolerance="10"
     inkscape:pageopacity="0"
     inkscape:pageshadow="2"
     inkscape:window-width="1920"
     inkscape:window-height="1027"
     id="namedview9"
     showgrid="false"
     inkscape:zoom="1.9798563"
     inkscape:cx="-45.273193"
     inkscape:cy="69.416449"
     inkscape:window-x="-8"
     inkscape:window-y="-8"
     inkscape:window-maximized="1"
     inkscape:current-layer="svg2" />
  <defs
     id="defs4" />
  <metadata
     id="metadata7">
    <rdf:RDF>
      <cc:Work
         rdf:about="">
        <dc:format>image/svg+xml</dc:format>
        <dc:type
           rdf:resource="http://purl.org/dc/dcmitype/StillImage" />
        <dc:title />
      </cc:Work>
    </rdf:RDF>
  </metadata>
  <path
     style="color:#000000;font-style:normal;font-variant:normal;font-weight:normal;font-stretch:normal;font-size:medium;line-height:normal;font-family:sans-serif;text-indent:0;text-align:start;text-decoration:none;text-decoration-line:none;text-decoration-style:solid;text-decoration-color:#000000;letter-spacing:normal;word-spacing:normal;text-transform:none;direction:ltr;block-progression:tb;writing-mode:lr-tb;baseline-shift:baseline;text-anchor:start;white-space:normal;clip-rule:nonzero;display:inline;overflow:visible;visibility:visible;opacity:1;isolation:auto;mix-blend-mode:normal;color-interpolation:sRGB;color-interpolation-filters:linearRGB;solid-color:#000000;solid-opacity:1;fill:#fe9cc1;fill-opacity:1;fill-rule:nonzero;stroke:none;stroke-width:2.65620017;stroke-linecap:butt;stroke-linejoin:miter;stroke-miterlimit:4;stroke-dasharray:none;stroke-dashoffset:0;stroke-opacity:1;color-rendering:auto;image-rendering:auto;shape-rendering:auto;text-rendering:auto;enable-background:accumulate"
     d="M 59.601562 0.41796875 C 56.625301 0.41473504 53.335073 0.42284375 49.697266 0.44140625 C 21.501956 0.58528625 14.784361 0.86921 13.119141 1.71875 C 11.591551 2.49807 9.6816406 5.095295 9.6816406 6.390625 C 9.6816406 6.609405 8.9222437 7.5465162 7.9960938 8.4726562 C 6.9948337 9.4739163 6.1358031 10.848614 5.8769531 11.865234 C 5.6375331 12.805574 5.3455094 30.014684 2.5683594 48.839844 C -0.20879063 67.665004 -0.2165875 84.374947 0.1953125 85.623047 C 0.8950825 87.743277 2.650815 89.688854 4.703125 90.621094 C 6.357675 91.372624 36.054888 91.310452 50.898438 91.414062 C 68.089237 91.534053 94.09546 91.372654 95.75 90.621094 C 96.70876 90.185594 98.00281 89.223815 98.625 88.484375 C 100.99078 85.672795 100.06278 64.644977 97.667969 48.835938 C 95.273169 33.026897 94.388436 12.836674 94.160156 11.933594 C 93.931866 11.030504 93.075383 9.5514344 92.257812 8.6464844 C 91.440252 7.7415544 90.771484 6.7733438 90.771484 6.4960938 C 90.771484 5.1057837 88.913981 2.5258 87.332031 1.71875 C 85.874955 0.9754025 80.435393 0.44060473 59.601562 0.41796875 z M 56.115234 3.8359375 C 70.88991 3.9059077 85.706334 4.6575056 86.292969 5.2441406 C 86.905079 5.8562506 87.384559 10.266106 89.318359 33.066406 C 91.969409 64.323276 91.802482 65.266414 90.726562 66.240234 C 89.650633 67.214104 67.751633 66.718592 50.720703 67.138672 C 33.172863 67.571502 11.330459 67.107379 10.974609 66.974609 C 9.2793794 66.342129 8.817825 65.442082 8.828125 62.789062 C 8.833745 61.343112 9.8722188 47.967163 11.136719 33.064453 C 13.068509 10.297473 13.552569 5.8517275 14.162109 5.2421875 C 14.829979 4.5743075 34.679225 3.9987194 49.828125 3.8496094 C 51.895489 3.8292619 54.004566 3.8259418 56.115234 3.8359375 z M 50.357422 17.830078 C 48.882386 17.779898 47.439982 17.847018 46.138672 18.060547 C 40.699624 18.953046 36.972899 21.22458 35.158203 25.072266 C 34.595431 26.265494 34.272412 27.415563 34.40625 28.615234 C 34.540088 29.814905 35.075474 30.92142 35.888672 32.228516 C 36.844964 33.76557 37.974868 34.637995 40.550781 35.859375 C 42.360906 36.717654 45.175398 37.72168 47.103516 38.195312 C 49.87434 38.875982 51.696265 39.529071 52.664062 40.121094 C 53.045094 40.354179 53.265231 40.531892 53.423828 40.703125 C 53.56258 40.910148 53.585938 41.119882 53.585938 41.412109 C 53.585938 43.155062 52.967941 44.057498 51.662109 44.644531 C 50.356277 45.231564 48.181019 45.331153 45.402344 44.578125 C 42.131437 43.691718 40.326539 43.214201 39.054688 42.998047 C 37.782834 42.781893 36.87537 42.896906 36.119141 43.146484 C 35.767602 43.262502 35.442587 43.425473 35.130859 43.607422 C 34.384876 43.955898 33.732732 44.457134 33.197266 45.037109 C 32.527657 45.762378 31.960938 46.576001 31.960938 47.695312 C 31.960938 48.80041 32.600735 49.641784 33.363281 50.320312 C 34.125827 50.998841 35.104852 51.576778 36.259766 52.103516 C 38.569593 53.156991 41.588369 53.975771 44.792969 54.328125 C 44.843689 54.333725 44.886879 54.324678 44.9375 54.330078 C 54.303316 55.323379 62.046494 52.778883 65.126953 46.958984 C 67.083568 43.262358 66.226894 38.190865 63.154297 35.371094 C 62.271441 34.560809 61.00335 33.929872 59.146484 33.193359 C 57.289619 32.456847 54.854112 31.660453 51.75 30.759766 C 49.955289 30.239011 48.604693 29.796226 47.693359 29.4375 C 46.902644 29.126252 46.42692 28.76746 46.414062 28.798828 C 46.359142 28.726748 46.315062 28.647808 46.275391 28.566406 C 46.034659 27.730752 46.456268 26.619452 47.367188 26.240234 C 47.745972 26.082539 48.974721 25.902435 50.228516 25.941406 C 51.48231 25.980376 52.833218 26.195268 53.65625 26.488281 C 55.070239 26.991688 56.487097 27.215995 57.779297 27.146484 C 59.059388 27.077624 60.262046 26.741329 61.140625 25.878906 C 61.283834 25.770975 61.422847 25.655279 61.552734 25.525391 C 62.185209 24.892932 62.809174 24.300932 62.820312 23.25 C 62.831452 22.199068 62.202459 21.589177 61.580078 20.966797 C 60.100141 19.486853 57.628081 18.808096 54.769531 18.300781 C 53.340256 18.047124 51.832457 17.880259 50.357422 17.830078 z M 50.875 20.529297 C 52.494399 20.551322 54.105909 20.66755 55.328125 20.880859 C 57.855634 21.329423 59.469981 22.402889 59.933594 22.71875 C 60.350236 23.002609 60.208173 23.619677 59.949219 23.929688 C 59.482117 24.488896 58.643722 24.446417 57.792969 24.291016 C 56.942217 24.135614 55.926233 24.011238 54.693359 23.677734 C 53.385339 23.323902 51.859186 23.007918 50.347656 22.960938 C 48.836127 22.913957 47.444117 22.990648 46.291016 23.470703 C 43.512999 24.627195 42.483173 28.216658 44.390625 30.53125 C 44.410185 30.55499 44.431472 30.569087 44.451172 30.591797 C 44.480352 30.629787 44.504406 30.669707 44.535156 30.707031 C 45.12715 31.425391 45.777283 31.643166 46.792969 32.042969 C 47.808655 32.442771 49.16946 32.882021 50.949219 33.398438 C 53.911874 34.25808 56.211528 35.01601 57.884766 35.679688 C 59.558003 36.343364 60.613855 36.956367 60.978516 37.291016 C 62.89597 39.050694 63.586718 43.09568 62.355469 45.421875 C 60.063292 49.752475 53.738954 52.14709 45.207031 51.208984 C 42.363335 50.896312 39.64282 50.144397 37.724609 49.269531 C 36.765504 48.832098 36.008487 48.35757 35.560547 47.958984 C 35.112607 47.560398 35.064453 47.298535 35.064453 47.339844 C 35.064453 47.388964 35.200989 46.920366 35.580078 46.509766 C 35.696055 46.384148 35.84467 46.278923 35.984375 46.166016 C 36.177777 46.047451 36.369275 45.946015 36.537109 45.890625 C 37.119333 45.698473 37.21921 45.652159 38.289062 45.833984 C 39.358916 46.015808 41.222987 46.497748 44.589844 47.410156 C 47.833591 48.289211 50.649041 48.318174 52.833984 47.335938 C 55.018927 46.353701 56.386719 44.182907 56.386719 41.578125 C 56.386719 40.118049 55.490459 38.734198 54.050781 37.853516 C 52.611104 36.972834 50.611864 36.323577 47.736328 35.617188 C 47.325648 35.516306 46.839343 35.376697 46.316406 35.212891 C 45.837188 35.062779 45.324634 34.889305 44.814453 34.708984 C 44.806553 34.706184 44.798946 34.703972 44.791016 34.701172 C 43.72012 34.319382 42.661822 33.898549 41.916016 33.544922 C 39.523798 32.410642 39.230584 32.1959 38.480469 30.990234 C 37.776467 29.858654 37.4811 29.128377 37.417969 28.5625 C 37.354839 27.996623 37.471119 27.456982 37.916016 26.513672 C 39.281537 23.618369 41.566353 21.534189 46.369141 20.746094 C 47.626458 20.580609 49.255601 20.507272 50.875 20.529297 z M 4.7207031 66.630859 L 4.9355469 72.238281 C 5.1292969 77.275731 5.2571 77.992355 6.1875 79.296875 C 6.75711 80.095535 8.0178244 81.111114 8.9902344 81.552734 C 10.673174 82.317064 19.512593 82.376869 50.226562 82.355469 C 80.156432 82.333659 89.778008 82.317034 91.460938 81.552734 C 92.433347 81.111114 93.696005 80.095535 94.265625 79.296875 C 95.173405 78.024085 95.328548 77.232576 95.517578 72.884766 L 95.732422 67.923828 L 96.345703 75.041016 C 97.171863 84.627366 96.532156 84.25401 95.759766 86.375 C 95.759766 86.375 95.202034 86.911163 94.433594 87.283203 C 93.835914 87.572583 93.232536 87.62115 91.253906 87.71875 C 88.845996 87.83761 86.776308 87.985509 77.929688 88.037109 C 68.037728 88.094829 58.856991 88.120878 49.712891 88.242188 C 33.499021 88.457288 7.3876025 87.644366 6.4453125 87.572266 C 5.7189325 87.464216 5.2984256 87.162417 4.8222656 86.373047 C 3.8910156 84.829197 3.3131469 84.416594 4.1230469 74.177734 L 4.7207031 66.630859 z M 91.800781 69.994141 C 92.123361 70.04666 92.116241 70.768425 92.003906 73.242188 C 91.870136 76.187557 91.688134 76.905536 90.865234 77.728516 L 89.884766 78.707031 C 89.884766 78.707031 74.118376 78.60051 50.753906 78.8125 C 28.152526 79.01757 10.069226 78.986812 8.9414062 76.757812 C 8.3760863 75.640523 8.2180375 72.477577 8.6484375 70.873047 C 8.8639475 70.069667 9.0602612 69.994554 10.050781 70.339844 C 10.798301 70.600424 34.755629 70.791 50.855469 70.625 C 66.574579 70.46293 90.813085 70.387067 91.359375 70.123047 C 91.548327 70.031727 91.693255 69.976634 91.800781 69.994141 z "
     transform="translate(-3.8146973e-6,0)"
     id="path4184" />
</svg>
