<?xml version="1.0" encoding="UTF-8" standalone="no"?>
<svg
   xmlns:dc="http://purl.org/dc/elements/1.1/"
   xmlns:cc="http://creativecommons.org/ns#"
   xmlns:rdf="http://www.w3.org/1999/02/22-rdf-syntax-ns#"
   xmlns:svg="http://www.w3.org/2000/svg"
   xmlns="http://www.w3.org/2000/svg"
   xmlns:sodipodi="http://sodipodi.sourceforge.net/DTD/sodipodi-0.dtd"
   xmlns:inkscape="http://www.inkscape.org/namespaces/inkscape"
   version="1.1"
   id="svg2"
   viewBox="0 0 99.999996 98.382805"
   height="27.765814mm"
   width="28.222221mm"
   inkscape:version="0.91 r13725"
   sodipodi:docname="vsc.svg">
  <sodipodi:namedview
     pagecolor="#ffffff"
     bordercolor="#666666"
     borderopacity="1"
     objecttolerance="10"
     gridtolerance="10"
     guidetolerance="10"
     inkscape:pageopacity="0"
     inkscape:pageshadow="2"
     inkscape:window-width="1920"
     inkscape:window-height="1027"
     id="namedview10"
     showgrid="false"
     inkscape:zoom="3.2599298"
     inkscape:cx="69.8031"
     inkscape:cy="14.394024"
     inkscape:window-x="-8"
     inkscape:window-y="-8"
     inkscape:window-maximized="1"
     inkscape:current-layer="svg2" />
  <defs
     id="defs4" />
  <metadata
     id="metadata7">
    <rdf:RDF>
      <cc:Work
         rdf:about="">
        <dc:format>image/svg+xml</dc:format>
        <dc:type
           rdf:resource="http://purl.org/dc/dcmitype/StillImage" />
        <dc:title />
      </cc:Work>
    </rdf:RDF>
  </metadata>
  <g
     transform="translate(961.57633,-396.86848)"
     id="layer1">
    <g
       transform="matrix(0.99818296,0,0,0.99818296,-449.24439,2.298823)"
       id="g4253">
      <path
         d="m -439.64604,397.40384 c -3.75216,1.18674 -8.91647,7.7382 -8.91647,7.7382 l -9.35112,10.20123 -9.20624,11.50518 c 0,0 -5.11027,7.33157 -9.06136,7.73821 -2.5219,0.25954 -6.66846,-3.65762 -6.66846,-3.65762 l -6.23379,-4.81668 -6.23381,-4.81667 c 0,0 -3.63715,-4.42549 -6.2338,-4.81668 -1.58672,0.19808 -3.25968,1.35716 -5.02516,2.44846 -1.76548,1.09129 -3.62348,2.11481 -4.04373,3.27102 -0.75483,3.03512 -0.57954,13.77132 -0.57954,13.77132 l -0.14488,11.59806 0,10.58389 c 0,0 -0.23115,6.74915 0.8693,9.85946 0.90492,1.52321 2.67256,2.48301 4.45719,3.80336 1.78462,1.32034 3.58622,3.00122 5.481,2.58615 2.08363,-0.54056 5.21962,-3.8025 5.21962,-3.8025 l 6.23381,-4.81668 6.23379,-4.81668 c 0,0 4.42134,-3.536 6.95823,-3.22297 4.16113,0.51347 9.78578,7.9023 9.78578,7.9023 l 8.19205,9.20624 9.35112,9.35113 c 0,0 5.78936,6.56003 9.78577,7.61253 3.48428,-0.22287 7.64468,-2.58643 11.93726,-4.48168 4.29258,-1.89525 8.71735,-3.32219 10.27186,-6.58886 2.17957,-5.02006 1.15907,-16.37743 1.15907,-16.37743 l 0,-18.98534 0,-18.98534 c 0,0 1.56212,-12.96374 -1.30395,-18.4058 -2.51167,-2.15958 -6.24558,-3.88228 -10.50497,-6.21842 -4.25939,-2.33613 -9.04426,-5.28571 -12.42857,-4.36739 z"
         id="path4234"
         style="fill:none;fill-opacity:1;stroke:#fe9cad;stroke-width:3.79999995;stroke-miterlimit:4;stroke-dasharray:none;stroke-opacity:1"
         inkscape:connector-curvature="0"
         sodipodi:nodetypes="ccccsccccscccccsccccsccccscccccsc" />
      <path
         style="fill:none;fill-opacity:1;stroke:#fe9cad;stroke-width:3.79999995;stroke-miterlimit:4;stroke-dasharray:none;stroke-opacity:1"
         id="path4244"
         d="m -497.50719,460.97134 c -2.18012,-0.79988 -1.30934,-6.84258 -1.30934,-6.84258 l 0,-8.97028 -0.32734,-7.49726 c 0,0 -1.47055,-5.6133 0.491,-6.67891 1.22888,-0.6676 3.67764,2.01925 3.67764,2.01925 l 3.84131,4.80163 3.84131,4.80163 c 0,0 2.6539,3.11146 2.53195,4.9653 -0.0977,1.48512 -2.53195,3.67765 -2.53195,3.67765 l -3.84131,3.84131 -3.84131,3.84132 c 0,0 -1.51425,2.41434 -2.53196,2.04094 z" />
      <path
         d="m -465.82182,445.57119 c 10e-6,2.96303 5.41872,7.04649 5.41872,7.04649 l 8.22091,7.0465 8.22092,7.0465 c 0,0 4.43675,5.6709 8.02075,5.24509 1.05132,-0.12502 0.0816,-12.22387 0.20015,-12.29159 l 0,-14.093 c 0,0 0.65489,-9.2022 0.73213,-13.63542 0.0772,-4.4332 1.46144,-9.02584 -1.7329,-10.74758 -2.32253,-1.25184 -7.22013,3.24352 -7.22013,3.24352 l -8.22092,7.04649 -8.22091,7.0465 c 0,0 -5.41872,4.08347 -5.41872,7.0465 z"
         id="path4250"
         style="fill:none;fill-opacity:1;stroke:#fe9cad;stroke-width:3.79999995;stroke-miterlimit:4;stroke-dasharray:none;stroke-opacity:1" />
    </g>
  </g>
</svg>
