<svg xmlns="http://www.w3.org/2000/svg" viewBox="0 0 100 91.376351" height="97.468" width="106.667"><path d="M62.336 89.866c-9.404-4.66-20.05-17.266-29.106-34.47 0 0-2.024-6.625-3.23-6.552-1.206.074-2.94 4.04-2.94 4.04-3.95 8.817-6.174 17.9-5.838 23.848.375 6.63 2.72 7.74 7.324 7.74 3.007 0 4.153-.06 10.1-3.547 2.18-1.28 2.616-1.326 3.237-.34 1.042 1.655-1.073 3.693-6.53 6.293-8.287 3.948-14.425 2.393-16.982-4.3-2.56-6.71-1.006-17.346 5.428-31.102 0 0 2.668-4.997 2.93-7.745.202-2.12-1.09-6.296-1.09-6.296-1.017-3.39-1.246-5.118-2.538-5.766-1.22-.613-2.84.155-5.144.838-8.97 2.662-13.84 6.05-13.84 9.996 0 2.225 2.458 6.84 6.36 9.303 2.846 1.796 3.664 4.005 1.723 4.65-1.343.448-7.737-4.046-10.023-7.042-2.566-3.365-2.904-8.19-.8-11.403 2.1-3.203 7.873-6.61 14.933-8.81 0 0 4.192-1.117 5.668-2.004.908-.545.204-3.17.204-3.17-.82-4.71-.57-14.406.44-17.046 2.04-5.33 6.944-8.008 12.116-6.615C39.212 1.57 44.99 5.505 44.99 7.348c0 2.085-1.645 1.965-5.087-.37-3.834-2.603-8.566-3.608-10.17-2.595-3.4 2.144-4.4 4.432-4.395 11.326.003 3.678.267 7.63.587 8.783 0 0 .673 1.308 1.292 1.607 1.694.816 5.64.028 5.64.028 5.966-.433 6.464-.608 8.196-2.867 1.014-1.32 4.72-5.41 8.465-9.086C63.15.796 75.29-1.87 80.083 7.394c1.476 2.856 1.545 13 .1 14.975-1.88 2.573-3.06.675-2.562-4.126.52-4.99-.367-9.784-2.136-11.552-1.96-1.96-6.786-.425-12.236 2.48C58.125 11.9 44.99 22.925 44.99 24.797c0 .81 1.325 1.07 5.49 1.07 11.854 0 29.026 3.725 37.944 8.232 5.142 2.598 10.356 7.587 11.227 10.742 1.024 3.703-.227 7.436-3.434 10.252-3.44 3.02-8.655 5.695-10.056 5.157-2.14-.82-1.012-2.785 2.672-4.652 4.038-2.046 6.49-4.977 6.483-7.067-.003-.71.704-3.162-.044-4.297-5.144-7.802-22.705-13.592-45.406-14.97 0 0-5.615-1.14-8.172.142-2.557 1.282-5.126 6.462-5.126 6.462-2.574 3.92-3.392 4.887-3.436 7.696-.056 3.56 1.967 5.736 4.047 9.88 8.28 16.502 18.004 28.72 26.712 32.98 5.037 2.465 7.263 2.14 9.93-1.448 1.406-1.89 1.61-3.17 1.523-9.636-.114-8.6-1.78-15.65-6.44-27.27-3.497-8.714-3.69-9.868-1.66-9.868 1.01 0 3.182 1.744 4.637 4.987 9.36 20.858 9.852 40.97 2.597 46.678-2.557 2.012-8.078 2.01-12.14 0zm-28.88-55.524c1.378-2.107 2.487-3.003 1.306-4.137-1.34-1.287-5.334-.086-6.302.55-.93.613-.16 6.574 1.714 7.433 1.116.512 1.904-1.738 3.282-3.846zm13.076 15.424c-1.968-1.97-2.04-6.25-.132-7.975 1.906-1.724 7.06-1.46 8.674.323 3.085 3.41-.105 9.194-4.687 9.194-1.285 0-2.998-.685-3.855-1.54z" fill="#fe9cc1"/></svg>