<svg xmlns="http://www.w3.org/2000/svg" viewBox="0 0 99.999996 91.510403" height="97.611" width="106.667"><path d="M23.807 1.902c-12.945-.112-18.56 3.46-20.94 13.132-1.926 19.69-.386 39.803-.303 59.643C4.29 85.207 15.568 91.063 25.576 89.3c19.42-.243 38.927.617 58.296-.403 10.333-1.98 15.62-13.035 13.914-22.75-.063-16.874.844-33.902-.362-50.683C95.06 5.162 87.37 1.724 73.802 2.004c-15.77-.016-31.537-.05-47.306-.03-.93-.04-1.826-.064-2.69-.072zm46.657 7.442c4.074.013 8.126.196 12.118.825 7.042 2.293 8.908 10.42 7.888 16.964-.24 15.362.52 30.89-.43 46.147-1.99 7.227-9.206 8.807-17.08 8.613-18.215-.374-36.563.735-54.717-.434-7.677-2.15-8.47-9.642-8.525-18.09.23-14.92-.508-29.926.294-44.806 1.622-7.506 7.16-8.85 16.87-9.064 7.734-.056 15.468-.053 23.2-.06 6.74.336 13.592-.117 20.382-.096zm-42.46 11.29c-3.746-.04-6.94.093-7.56.625-1.66 1.416-.757 24.35-.757 24.35s-.272 22.353 1.16 24.35c.716.998 6.56.997 12.223.748 5.663-.25 10.44.188 11.147-.748.707-.936 1.566-6.193-.223-8.048-1.628-1.69-8.712-.478-12.232-1.35-4.166.067-2.292-10.215-2.394-16.48-.1-6.264-2.45-15.165 4.305-15.105 4.572.15 7.638.763 10.1-.11 1.207-.428 1.6-1.73 1.267-3.372-.332-1.644.766-3.91-2.127-4.57-.875-.2-5.86-.02-11.05-.197a168.65 168.65 0 0 0-3.858-.093zm30.05.138c-1.256.007-2.08.09-2.273.353-.99 1.35-.51 4-.51 4 .778 3.226 2.196 3.94 5.14 3.84 2.947-.1 6.927-.056 9.24.707 2.52 4.354.385 13.363 1.092 19.53-.092 6.782 3.53 13.603-6.868 12.233-6.436-.136-7.71 1.673-8.3 4.44-.642 3.008.51 5.105 3.53 5.362 0 0 18.1 1.318 20.05-1.277 1.95-2.595 1.56-47.462 0-48.7-.645-.512-6.488-.512-12.17-.384-3.552.08-6.84-.117-8.93-.104z" fill="none" stroke="#fe9cc1" stroke-width="3.799"/></svg>