<svg xmlns="http://www.w3.org/2000/svg" id="Layer_1" viewBox="0 0 120 120"><style id="style3">.st0{fill:#414042}.st1{fill:#769cd2}.st2{fill:#26b8b0}.st3{fill:#9c82bc}.st4{fill:#676767}</style><g transform="matrix(.33333 0 0 .33333 40 40)" id="g4153"><circle id="path4151" cx="60" cy="60" r="180" fill="#fe9cad" stroke-width="0" stroke-linecap="round" stroke-linejoin="round"/><path d="M102.977-75.537c-.2.012-.458.04-.79.084-11.917 1.543-21.55 7.8-28.778 18.688-1.09 1.638-2.2 3.445-2.468 4.016-.472 1.003-.526 1.034-1.578.883-2.747-.392-8.333-.482-10.47-.17-8.97 1.312-17.138 6.913-21.735 14.905-2.585 4.492-3.674 8.34-3.88 13.703C32.924-8.405 46.016-6.07 62.532-5.35c10.028-.204 30.974-2.137 30.983-18.08-.116-2.937-.314-4.41-.858-6.378-2.346-8.49-7.71-15.163-15.37-19.12-2.284-1.18-2.495-1.24-2.813-.804-.592.81-2.596 5.55-3.782 8.943-.993 2.844-1.216 3.26-1.777 3.322-.353.038-.824-.05-1.047-.196-.35-.227-.265-.686.633-3.35 2.178-6.46 6.467-14.126 10.58-18.907 5.82-6.77 13.94-11.242 22.16-12.206l2.638-.31.172-.92c.095-.508.035-1.22-.137-1.6-.22-.48-.33-.615-.936-.58zM37.573-44.974l-.898.37c-.494.205-15.643 6.426-33.664 13.827a26012.09 26012.09 0 0 0-34.488 14.18c-.947.397-2.015 1.067-2.37 1.488l-.647.767V30c0 49.776-.147 46.208 1.98 48.323 1.056 1.05 4.16 2.376 45.608 19.494 24.46 10.102 44.807 18.476 45.222 18.61h.002c2 .642 2.033.63 48.282-18.47 41.82-17.274 44.884-18.585 45.946-19.64 2.136-2.123 1.995 1.408 1.914-48.037-.07-41.498-.1-44.038-.55-44.865-.265-.483-.936-1.107-1.49-1.387-.728-.367-56.91-23.574-59.568-24.606-.183-.07.325 1.193 1.13 2.81 2.76 5.544 3.608 9.673 3.576 15.628-.033 5.812-1.868 9.395-4.688 12.062-7.23 6.71-17.727 8.462-29.598 8.422-11.87-.04-18.597-.744-26.998-6.156-8.4-5.412-7.385-17.228-6.763-20.434 1.15-5.92 3.345-10.606 7.495-15.988l.568-.74zm21.85 4.89c.466.067 1.02.357 1.605.878.56.497 2.015 1.577 3.235 2.402 2.352 1.59 3.858 2.08 9.427 3.066 1.34.238 2.71.61 3.045.826.67.434.8 1.24.272 1.68-.475.394-3.854.602-5.533.34-4.182-.653-9.3-3.01-11.797-5.434-1.214-1.177-1.56-1.688-1.56-2.322 0-1.055.53-1.552 1.306-1.437zM-20.82-.17c2.226 4.486 4.536 7.59 8.077 10.005 6.298 4.312 14.99 1.513 21.847 4.363 5.254 2.183 8.923 7.32 14.176 9.504 5.926 2.465 12.727 1.957 18.88 3.785 6.644 1.975 12.383 7.86 19.314 7.71 6.413-.138 11.352-6.242 17.548-7.902 5.066-1.357 10.672.062 15.655-1.576 5.275-1.735 9.335-6.07 14.332-8.493 4.237-2.054 7.297-4.19 13.182-5.078 8.855-1.336 12.625-2.636 16.828-5.802l1.963-1.48v7.445l-40.146 16.57v-.002c-22.08 9.114-40.33 16.632-40.553 16.706-.3.1-80.765-32.893-81.178-33.285-.04-.037-.04-2.858 0-6.268l.075-6.2zm.192 27.278a.264.264 0 0 1 .146.01c.26.073 18.084 7.423 39.606 16.332 38.027 15.74 39.18 16.197 40.89 16.197 1.71 0 2.86-.455 40.89-16.2 21.523-8.91 39.346-16.258 39.607-16.33.443-.125.473.325.473 6.75v6.882l-40.146 16.567c-22.08 9.113-40.33 16.63-40.553 16.703-.223.074-18.593-7.38-40.822-16.568l-40.418-16.705v-6.88c0-5.622.026-6.67.328-6.76zm0 28.434a.264.264 0 0 1 .146.01c.26.073 18.084 7.422 39.606 16.33 38.027 15.743 39.18 16.2 40.89 16.2 1.71 0 2.86-.454 40.89-16.2 21.523-8.908 39.346-16.258 39.607-16.33.443-.124.473.323.473 6.747v6.882l-40.146 16.57c-22.08 9.11-40.33 16.628-40.553 16.702-.223.074-18.593-7.38-40.822-16.57L-20.956 69.18V62.3c0-5.62.026-6.668.328-6.758zm38.68 84.074c-5.513 0-10.662 2.032-15.45 6.094a9.943 9.943 0 0 1-1.812-1.452l-2.25-2.175c-.87-.87-1.643-1.33-2.32-1.38-.968 0-1.452.654-1.452 1.96 0 .725.315 1.813.944 3.263.677 1.403 1.57 2.757 2.683 4.063a38.794 38.794 0 0 0-3.916 5.874c-3.482 6.48-5.223 13.322-5.223 20.527 0 5.852 1.812 10.422 5.44 13.71 3.626 3.288 8.727 4.934 15.304 4.934 5.417 0 10.108-1.307 14.073-3.918 1.23-.8 2.285-1.73 3.2-2.762.51 1.274 1.274 2.438 2.3 3.488 2.08 2.128 4.81 3.192 8.195 3.192 3.434 0 6.167-.654 8.198-1.96a16.18 16.18 0 0 0 4.93-5.15c.872 4.498 2.59 6.746 5.152 6.746 1.886 0 3.82-.46 5.802-1.378a22.25 22.25 0 0 0 5.368-3.48 21.03 21.03 0 0 0 3.006-3.26c-.015.654-.03 1.306-.03 1.952 0 4.69 1.138 7.038 3.41 7.038 1.935 0 3.843-.75 5.73-2.25.724-.58 1.137-1.306 1.233-2.176.097-.92.145-1.837.145-2.756l.508-9.938a125.45 125.45 0 0 0 2.466 5.875c3.095 6.915 6.6 10.373 10.518 10.373 3.965.05 7.543-1.523 10.734-4.714.512-.512.97-1.03 1.4-1.547.035.078.068.163.106.24 2.08 4.158 5.998 6.237 11.752 6.237 7.254 0 12.96-1.958 17.117-5.875 1.693-1.595 2.902-3.215 3.627-4.86.726-1.692 1.088-3.215 1.088-4.57 0-1.353-.338-2.03-1.015-2.03-.436 0-1.063.483-1.885 1.45-.822.92-1.888 1.935-3.194 3.047-3.53 2.997-7.18 4.495-10.95 4.495-1.79-.048-3.385-.434-4.788-1.16-1.402-.725-2.13-1.958-2.178-3.7v-1.81a67.374 67.374 0 0 1 5.877-2.324c2.03-.724 3.868-1.52 5.512-2.39 1.644-.92 2.975-2.032 3.99-3.337 1.064-1.354 1.596-3.07 1.596-5.15 0-2.08-.725-3.773-2.176-5.08-1.402-1.304-3.434-1.958-6.093-1.958-2.612 0-5.078.606-7.4 1.815-2.32 1.16-4.376 2.804-6.165 4.93-1.742 2.13-3.144 4.67-4.208 7.62-.815 2.222-1.31 4.385-1.502 6.495-.413.495-.766.94-1.236 1.482a24.102 24.102 0 0 1-3.264 2.973c-1.21.92-2.563 1.38-4.062 1.38-3.095 0-5.296-2.59-6.602-7.763 2.9.048 5.78-.918 8.633-2.9 2.852-1.983 4.278-4.4 4.278-7.254 0-2.853-.823-5.005-2.467-6.455-1.643-1.5-4.01-2.248-7.106-2.248-1.547 0-2.902.217-4.063.652-3.287 1.21-5.777 3.577-7.47 7.107l.725-6.092a58.932 58.932 0 0 1 2.467-3.627 81.362 81.362 0 0 0 2.248-3.337 17.454 17.454 0 0 0 1.596-3.336c.435-1.16.628-2.32.58-3.48 0-1.21-.387-2.42-1.16-3.628-.774-1.258-1.5-2.178-2.176-2.758-.677-.63-1.33-.942-1.96-.942-.58 0-1.11.144-1.595.434-.483.29-1.16 1.065-2.03 2.322-.823 1.257-2.006 3.77-3.554 7.543-1.498 3.722-3.045 9.284-4.64 16.683-.76 3.51-1.33 6.948-1.728 10.318-.353.23-.786.62-1.322 1.216-4.836 5.03-7.883 7.543-9.14 7.543-1.016 0-1.522-2.007-1.522-6.02 0-4.014.193-7.134.58-9.358 1.306-2.225 2.296-4.135 2.973-5.73 0-1.306-.772-2.685-2.32-4.135-1.5-1.5-3.094-2.25-4.787-2.25-.87 0-1.645.703-2.322 2.105-1.4-.774-3.214-1.16-5.44-1.16-2.223 0-4.35.313-6.38.94-1.984.63-4.135 1.937-6.456 3.92-4.39 3.805-7.01 8.735-7.875 14.786a17.072 17.072 0 0 1-3.357 3.274c-3.82 2.804-7.908 4.207-12.26 4.207-7.06 0-10.59-4.425-10.59-13.275 0-6.383 1.718-12.5 5.15-18.35 4.014 1.546 7.883 2.32 11.606 2.32 3.77 0 6.77-.87 8.993-2.61 2.225-1.74 3.338-3.894 3.338-6.457 0-1.693-.29-3.12-.87-4.28-1.644-3.094-5.247-4.642-10.808-4.642zm.074 7.18c2.37 0 3.553.944 3.553 2.83 0 1.595-1.452 2.394-4.353 2.394-2.9 0-5.585-.41-8.05-1.232 2.66-2.66 5.61-3.99 8.85-3.99zm33.642 17.917c-.967 3.87-1.45 8.51-1.45 13.926-.436 1.547-.992 2.853-1.67 3.917-1.933 3.095-4.375 4.667-7.325 4.715-2.756 0-4.135-1.862-4.135-5.586 0-4.545 1.453-8.316 4.354-11.314 2.9-2.998 6.31-4.885 10.226-5.66zm69.98 1.38c1.5 0 2.25.603 2.25 1.812-.047 1.354-.798 2.563-2.25 3.627a30.01 30.01 0 0 1-2.392 1.523 85.547 85.547 0 0 0-2.83 1.813c.967-5.85 2.708-8.776 5.223-8.776zm-31.68 1.376c1.984 0 2.976.87 2.976 2.61 0 .87-.29 1.694-.87 2.467-1.84 2.418-5.273 3.773-10.302 4.063a25.2 25.2 0 0 1 1.742-3.41c2.32-3.82 4.473-5.73 6.455-5.73z" id="path4146" fill="#4d3829"/></g></svg>