<svg xmlns="http://www.w3.org/2000/svg" viewBox="0 0 99.999996 98.382805" height="104.942" width="106.667"><g fill="none" stroke="#fe9cad" stroke-width="3.8"><path d="M73.485 2.112c-3.746 1.185-8.9 7.724-8.9 7.724L55.25 20.02l-9.19 11.483s-5.1 7.318-9.044 7.724c-2.517.26-6.656-3.65-6.656-3.65l-6.223-4.81-6.222-4.806s-3.63-4.417-6.223-4.807c-1.584.197-3.254 1.354-5.016 2.444-1.762 1.09-3.617 2.11-4.036 3.265-.754 3.03-.58 13.746-.58 13.746l-.143 11.577V62.75s-.23 6.737.867 9.84c.904 1.522 2.668 2.48 4.45 3.798 1.78 1.318 3.58 2.995 5.47 2.58 2.08-.54 5.21-3.795 5.21-3.795l6.223-4.807 6.223-4.808s4.413-3.53 6.945-3.217c4.154.513 9.768 7.888 9.768 7.888l8.177 9.19 9.334 9.334s5.78 6.548 9.768 7.6c3.478-.224 7.63-2.583 11.916-4.475 4.285-1.892 8.702-3.316 10.253-6.577 2.177-5.01 1.158-16.347 1.158-16.347V31.05s1.56-12.94-1.3-18.37C93.87 10.522 90.14 8.802 85.89 6.47c-4.25-2.332-9.027-5.277-12.405-4.36z" stroke-width="3.7930839999999995"/><path d="M15.73 65.564c-2.177-.798-1.308-6.83-1.308-6.83V49.78l-.327-7.484s-1.468-5.603.49-6.666c1.227-.667 3.67 2.015 3.67 2.015l3.835 4.793 3.835 4.793s2.65 3.107 2.527 4.957c-.097 1.483-2.527 3.67-2.527 3.67l-3.835 3.836-3.834 3.834s-1.51 2.41-2.527 2.037zM47.357 50.192c0 2.958 5.408 7.034 5.408 7.034l8.206 7.033 8.207 7.033s4.43 5.66 8.007 5.236c1.05-.126.08-12.203.2-12.27V50.19s.653-9.186.73-13.61c.077-4.426 1.46-9.01-1.73-10.73-2.318-1.248-7.207 3.24-7.207 3.24l-8.206 7.033-8.205 7.033s-5.408 4.076-5.408 7.034z" stroke-width="3.7930839999999995"/></g></svg>